<?xml version="1.0" encoding="UTF-8" standalone="no"?>
<!-- Created with Inkscape (http://www.inkscape.org/) -->

<svg
   width="100%"
   viewBox="0 0 210 297"
   version="1.1"
   id="gold-rose-outline"
   xmlns="http://www.w3.org/2000/svg"
   xmlns:svg="http://www.w3.org/2000/svg">
  <defs
     id="defs1" />
  <g
     id="layer1">
    <path
       style="display:inline;fill:#ffb444;fill-opacity:1;stroke-width:1.007;stroke-dasharray:none"
       d="m 98.163496,257.07901 c -0.818236,-0.29519 -1.091565,-0.96832 -0.699364,-1.72241 0.152134,-0.29251 0.956153,-1.64938 1.786751,-3.01526 1.521377,-2.5019 4.269547,-7.8357 4.954887,-9.61666 0.20334,-0.5285 0.60905,-1.54039 0.90156,-2.2486 1.36129,-3.29611 2.9281,-8.47163 3.13597,-10.35874 0.67242,-6.10432 -3.02276,-12.04041 -12.01413,-19.29994 -2.954369,-2.38531 -9.578038,-7.21824 -10.181153,-7.42861 -0.376131,-0.1312 -1.222659,-0.0768 -3.074302,0.19766 C 65.240723,206.21469 49.6206,201.43 37.449707,189.64172 c -1.864045,-1.80541 -2.162251,-2.25775 -1.786881,-2.71032 0.272468,-0.32852 0.46678,-0.2731 2.643068,0.75369 4.83784,2.28248 8.244481,3.1532 13.72001,3.50667 1.911214,0.12337 2.74608,-0.0242 2.74608,-0.48543 0,-0.37002 -1.279455,-0.94353 -4.136522,-1.85425 -3.885154,-1.23843 -4.665399,-1.61158 -7.813438,-3.73674 -4.231219,-2.85643 -8.757568,-6.38566 -12.733541,-9.92848 -2.137516,-1.90466 -2.451341,-2.31855 -2.164546,-2.85478 0.239356,-0.44749 0.255426,-0.44821 4.099874,-0.18195 2.093283,0.14498 2.966271,0.14324 3.245822,-0.007 0.759726,-0.40677 0.413421,-0.77618 -1.852244,-1.97567 -7.413251,-3.92475 -13.954758,-8.25046 -20.924342,-13.83674 -2.9583059,-2.37115 -4.0771018,-3.49917 -4.0134932,-4.04669 0.082454,-0.70957 0.7109555,-0.69807 2.2325722,0.0409 1.579245,0.76697 3.757025,1.46537 5.636149,1.80745 2.18307,0.39741 7.551559,0.30776 11.490343,-0.19189 5.618536,-0.71276 7.987392,-0.91668 10.754962,-0.92582 5.028977,-0.0166 7.815342,0.7064 12.075084,3.13321 0.92829,0.52887 1.055768,0.43267 1.001567,-0.75592 -0.06061,-1.32819 0.407239,-1.47878 2.54215,-0.81823 3.403626,1.05304 6.082631,2.78717 8.71038,5.63823 0.822063,0.89195 1.642933,1.62173 1.824171,1.62173 0.579901,0 0.759656,-0.87463 0.415906,-2.02355 -0.506034,-1.69133 -0.511995,-1.76444 -0.17129,-2.10534 0.448787,-0.44905 1.257174,-0.28676 3.19101,0.64062 3.558424,1.70649 7.029776,4.53908 9.238474,7.53856 1.187144,1.61218 1.51234,1.91651 1.892028,1.7707 0.371533,-0.14264 0.350664,-0.70341 -0.09628,-2.58666 -0.729791,-3.07471 0.369418,-3.10109 3.249839,-0.0781 2.948878,3.09491 4.740919,7.39472 5.392985,12.93998 0.498529,4.23959 0.382944,14.59076 -0.170388,15.2579 -0.451562,0.54442 -1.064294,0.34148 -1.773296,-0.58729 -1.624569,-2.12817 -6.316767,-9.48297 -6.399652,-10.0312 -0.04929,-0.3258 -0.138248,-1.08738 -0.197739,-1.69244 -0.05951,-0.60506 -0.237472,-1.29757 -0.395507,-1.5389 -0.534437,-0.81615 -0.759005,-0.17026 -0.97633,2.80789 -0.110146,1.50938 -0.291704,2.85458 -0.403453,2.98931 -0.458234,0.5525 -1.050879,0.26434 -2.406146,-1.16988 -3.766352,-3.98573 -7.352538,-6.74438 -13.830687,-10.63911 -4.845354,-2.9131 -14.836121,-7.67687 -15.386467,-7.33652 -0.105417,0.0652 -0.03787,0.21531 0.158816,0.35318 0.448136,0.31407 4.180334,2.50983 5.935617,3.49209 5.193503,2.90632 14.366646,9.31818 20.314946,14.1998 2.006872,1.64697 2.211203,1.87082 2.262028,2.47815 0.06131,0.73212 -0.323183,1.12861 -1.618568,1.66909 -0.962725,0.40172 -1.277803,0.84645 -0.83118,1.17319 0.192449,0.14083 0.544415,0.25603 0.782148,0.25603 0.855355,0 3.290355,0.59147 4.474363,1.0868 2.613302,1.09335 4.202866,2.48088 7.817034,6.82337 3.230033,3.88101 5.003058,5.5005 9.083717,8.29716 8.72875,5.98218 9.62436,6.66578 11.95996,9.1291 0.99555,1.0499 1.8826,2.2201 2.47202,3.2611 1.10123,1.94482 1.39468,2.18923 1.955,1.62858 0.37266,-0.37273 0.41861,-0.74279 0.73352,-5.8841 0.86302,-14.0898 0.80793,-32.71155 -0.12924,-43.75312 -0.14818,-1.74638 -0.019,-1.93439 1.4029,-2.07128 1.76294,-0.16947 3.60229,1.06845 4.02514,2.70894 0.2468,0.95739 0.73319,10.14697 0.94186,17.79255 0.19803,7.25041 0.0114,16.15718 -0.46036,21.76813 -0.14815,1.77058 -0.32691,3.90028 -0.39664,4.73268 -0.11112,1.32362 -0.0881,1.52835 0.18371,1.63269 0.40761,0.15652 0.4397,0.10858 2.89844,-4.332 1.14546,-2.0687 2.88367,-5.11177 3.8627,-6.76235 8.58293,-14.47025 16.97106,-22.18443 29.5656,-27.19032 1.98041,-0.78714 2.22437,-0.97179 3.64213,-2.75673 3.73411,-4.70119 8.68829,-7.20631 16.04384,-8.11271 2.85579,-0.3519 7.47111,-0.26716 10.61884,0.19496 2.38138,0.34965 2.86153,0.56433 2.93465,1.31225 0.0749,0.76894 -0.19652,0.94268 -2.00255,1.28116 -3.75497,0.70372 -6.64724,2.19082 -11.33865,5.82999 -2.65427,2.05897 -3.87307,2.88615 -5.32054,3.61106 -3.62928,1.81759 -6.17069,1.98223 -11.40987,0.73926 -0.89114,-0.21143 -1.05305,-0.19534 -2.02232,0.20106 -11.06705,4.52599 -20.32504,12.4255 -26.73745,22.81406 -1.60353,2.59791 -1.34291,3.01836 1.15549,1.86392 3.80737,-1.75929 7.57318,-2.0523 11.99766,-0.9335 1.54816,0.39146 8.46804,2.45053 9.35322,2.78312 0.59044,0.22185 0.82202,0.7857 0.48806,1.18835 -0.30955,0.37307 -1.09048,0.28119 -4.72397,-0.55585 -3.86465,-0.89024 -6.62391,-1.15107 -9.1748,-0.86729 -6.79751,0.75626 -12.18375,4.74574 -17.60242,13.03767 -1.70465,2.60855 -2.37596,4.33007 -5.78953,14.84688 -3.6997,11.39841 -6.39296,17.11106 -9.513,20.17782 -1.79332,1.7627 -4.09398,2.54062 -5.748515,1.94384 z m 3.447654,-0.88288 c 2.10861,-1.05429 4.24442,-3.85984 6.47302,-8.50264 1.61009,-3.35436 2.57662,-5.96889 5.79625,-15.67948 1.44245,-4.3506 2.86893,-8.45179 3.16994,-9.11376 1.86523,-4.10217 6.43438,-9.81689 9.97965,-12.48169 5.40441,-4.06225 11.28109,-4.85222 20.20417,-2.71595 1.45957,0.3494 2.76466,0.59266 2.90031,0.54058 0.38078,-0.14618 -0.0507,-0.55728 -0.74067,-0.70572 -0.32163,-0.0691 -1.49484,-0.4125 -2.60715,-0.76291 -6.15944,-1.94058 -7.65372,-2.28143 -10.47917,-2.39038 -2.58086,-0.0996 -4.63605,0.32915 -7.19966,1.50172 -1.97696,0.90423 -2.70265,0.86596 -2.78593,-0.1469 -0.046,-0.56051 0.10143,-0.97511 0.72008,-2.02357 5.29576,-8.97533 13.39805,-16.60242 22.59969,-21.27429 4.92098,-2.49844 5.71182,-2.68774 8.31851,-1.99115 1.18949,0.31786 2.02148,0.40398 3.90183,0.40374 2.26813,0 2.467,-0.0312 3.89972,-0.6014 2.02824,-0.80757 3.89918,-1.966 6.76336,-4.18762 5.00364,-3.88114 7.75702,-5.32485 11.51617,-6.03837 1.54137,-0.29258 2.18029,-0.54159 2.18029,-0.84974 0,-0.83124 -6.68239,-1.58586 -11.16923,-1.26129 -8.36479,0.6051 -14.01838,3.30293 -17.99684,8.58788 -1.14365,1.51918 -0.97064,1.40233 -3.75283,2.53534 -13.90999,5.66466 -22.07151,13.90053 -32.4445,32.74016 -2.85185,5.17959 -3.06694,5.51248 -3.60228,5.57471 -0.82018,0.0954 -1.14248,-0.41887 -1.00859,-1.60888 1.21366,-10.78563 1.34024,-23.25616 0.40731,-40.11352 -0.20674,-3.73704 -0.29178,-4.42585 -0.62641,-5.08171 -0.75814,-1.48559 -2.35546,-2.32647 -3.62378,-1.90765 -0.7736,0.25547 -0.89357,0.61484 -0.65692,1.96789 0.77907,4.45495 0.92379,30.81577 0.23054,41.99696 -0.22261,3.59177 -0.44476,6.71098 -0.49352,6.93155 -0.13532,0.61305 -0.60423,0.97892 -1.25025,0.97582 -0.80586,-0.004 -0.90757,-0.0976 -1.69344,-1.56081 -1.88182,-3.5038 -4.4703,-5.84515 -12.403582,-11.21931 -6.13574,-4.15645 -7.638381,-5.44448 -10.947551,-9.38398 -5.106541,-6.07924 -6.954116,-7.39235 -11.427136,-8.12162 -1.958982,-0.3194 -2.444467,-0.55141 -2.444467,-1.16825 0,-0.45624 0.412198,-0.84294 1.470772,-1.37968 1.079903,-0.54754 1.487453,-0.93815 1.350768,-1.29454 -0.111568,-0.29095 -5.079751,-4.32481 -7.969218,-6.47053 -3.93682,-2.92351 -10.393318,-7.26047 -13.512654,-9.07674 -7.745471,-4.50993 -7.481158,-4.3377 -7.411238,-4.82938 0.145742,-1.02474 2.01662,-0.44048 8.329601,2.60121 9.170908,4.41869 16.424773,9.2617 21.157287,14.12562 1.120058,1.15117 2.131944,2.09303 2.248612,2.09303 0.292085,0 0.369078,-0.45693 0.547972,-3.25167 0.167362,-2.61505 0.313975,-3.00289 1.134916,-3.00289 0.650502,0 0.870843,0.49065 1.197202,2.66599 l 0.253683,1.69094 3.276719,4.9499 c 3.686483,5.56893 3.922453,5.7887 4.13001,3.84615 0.196276,-1.83692 0.169777,-10.52702 -0.03897,-12.78506 -0.62218,-6.73011 -2.943819,-11.78637 -6.851755,-14.92239 -1.380274,-1.10764 -1.470121,-0.9697 -0.861076,1.32196 0.486237,1.82958 0.474084,2.30359 -0.06813,2.6591 -0.678204,0.44465 -1.227208,0.18152 -2.094455,-1.00376 -2.540476,-3.47212 -5.3475,-5.912 -9.124682,-7.93122 -2.619574,-1.40038 -3.541343,-1.40021 -2.981199,5.7e-4 0.652096,1.63073 0.248394,3.31953 -0.793499,3.31953 -0.419252,0 -0.783491,-0.29066 -1.856051,-1.48115 -2.624813,-2.91342 -5.679238,-4.94097 -8.851563,-5.8757 -1.822318,-0.53698 -2.002964,-0.4685 -1.863865,0.70668 0.09508,0.80344 0.06121,0.93436 -0.290341,1.12264 -0.447465,0.23961 -0.984476,0.12034 -1.687557,-0.37482 -0.991629,-0.69841 -3.44882,-1.80698 -5.007236,-2.25903 -3.337442,-0.96816 -8.42064,-1.04306 -14.096171,-0.20777 -9.839175,1.44813 -15.21081,1.14875 -20.361964,-1.13484 -0.8348069,-0.37011 -1.5793752,-0.6102 -1.6546054,-0.5336 -0.3840561,0.39104 7.2344684,6.48099 12.8578834,10.2781 3.822216,2.58089 5.999295,3.90592 10.342643,6.29485 3.551682,1.95346 3.69011,2.05078 3.746445,2.63339 0.112901,1.16731 0.004,1.19558 -4.053347,1.04841 -2.502566,-0.0908 -3.634737,-0.0716 -3.634737,0.0616 0,0.20467 3.202571,3.09259 5.97498,5.38797 3.53439,2.92622 8.879856,6.78964 11.873528,8.58152 0.362416,0.2169 2.3066,0.9432 4.320365,1.61392 4.275271,1.424 4.856415,1.72026 4.856415,2.47584 0,0.7546 -0.433659,0.91125 -2.522784,0.91125 -4.943236,0 -10.419837,-1.32168 -15.007681,-3.6218 -0.895289,-0.44889 -1.681225,-0.76165 -1.746527,-0.69505 -0.159838,0.16302 2.760086,2.94754 5.130867,4.89292 7.640154,6.26925 15.845754,9.86969 25.544567,11.20844 3.780228,0.52177 11.49955,0.43487 15.443012,-0.17384 3.385172,-0.52253 3.970724,-0.5071 4.976339,0.13101 1.161345,0.73698 7.816744,5.69498 10.007077,7.45492 2.755508,2.21404 6.968438,6.5314 8.336818,8.54345 1.33001,1.95564 2.45214,4.24192 2.91855,5.94647 0.49186,1.79733 0.43686,5.33146 -0.11261,7.24407 -2.278,7.92882 -5.52879,15.31942 -9.477543,21.54719 -0.561958,0.88629 -1.021745,1.7567 -1.021745,1.93423 0,0.89714 2.154758,0.98114 3.819288,0.14891 z m -8.158878,-53.32428 c -2.932427,-2.86871 -4.735309,-13.73923 -3.025461,-18.24196 0.608685,-1.60287 1.373481,-2.09211 1.917586,-1.22671 0.249224,0.39638 0.372594,1.11276 1.227689,7.12837 0.208518,1.46705 0.49397,3.4124 0.634332,4.32298 0.58447,3.79165 1.035661,7.44776 0.979607,7.93792 -0.08977,0.78518 -0.971071,0.82552 -1.733753,0.0794 z m 1.227789,-1.42375 c -0.197097,-1.18296 -1.378891,-9.40226 -1.966346,-13.67592 -0.578088,-4.20536 -0.849173,-4.81538 -1.581939,-3.55991 -1.336632,2.29004 -1.055348,9.84135 0.532543,14.29636 0.669378,1.87807 1.49126,3.35493 2.226501,4.00085 0.873538,0.76747 1.053634,0.5253 0.789241,-1.06138 z m 32.802879,-24.55845 c -0.20221,-0.11095 -0.74001,-0.55318 -1.19501,-0.98268 -0.45502,-0.42948 -2.60602,-2.20772 -4.77997,-3.9516 -8.46641,-6.79146 -10.81419,-9.97047 -11.15,-15.09738 -0.1198,-1.83104 -0.34466,-2.35962 -0.80622,-1.8976 -0.20184,0.20206 -0.90684,3.51754 -1.46142,6.87377 -0.85623,5.18155 -1.06543,5.88664 -1.74659,5.88664 -1.21809,0 -6.15692,-5.12539 -8.597171,-8.92196 -2.531019,-3.93778 -4.652605,-9.89477 -5.026252,-14.11269 -0.16671,-1.88233 0.03246,-2.31954 1.555701,-3.417 13.606342,-9.80217 29.019702,-12.50305 48.921232,-8.57245 3.92825,0.77581 8.64442,1.88495 10.85136,2.55195 0.45503,0.1375 1.65462,0.47307 2.66579,0.74567 2.08122,0.56108 3.35266,0.93217 8.18112,2.38794 1.8706,0.564 4.10434,1.23578 4.9638,1.49287 0.8595,0.25707 2.05908,0.61914 2.66579,0.80459 9.50763,2.90613 12.50059,3.1191 19.24774,1.36967 0.60674,-0.1573 1.44591,-0.26095 1.86493,-0.23032 1.30125,0.0951 1.14136,0.52477 -0.9497,2.55235 -4.65447,4.51311 -10.67951,8.03997 -17.12953,10.02703 -5.36741,1.65355 -7.96934,2.87845 -14.46892,6.81146 -1.67514,1.01367 -5.63716,2.9958 -7.30644,3.65531 -2.63688,1.04175 -7.37758,1.97987 -8.32337,1.64704 -0.85452,-0.30069 -0.88531,-0.71297 -0.51027,-6.83746 0.36548,-5.96909 0.37974,-6.44268 0.19806,-6.62429 -0.21809,-0.21819 -0.43205,0.25091 -1.57298,3.44887 -1.54593,4.33315 -4.32315,11.30367 -4.8876,12.26746 -0.36851,0.62902 -0.71509,0.90454 -1.7861,1.4195 -1.12154,0.53927 -1.45521,0.81451 -2.13823,1.76368 -1.09882,1.52707 -3.63953,3.87003 -4.96078,4.57466 -1.14039,0.6082 -1.71203,0.69818 -2.31911,0.36496 z m 2.40744,-1.04134 c 1.4807,-0.95813 3.1681,-2.55498 4.33852,-4.1057 0.80906,-1.07196 1.19473,-1.40396 2.25985,-1.9455 1.48155,-0.75325 1.58924,-0.86458 2.2876,-2.36526 0.63089,-1.35574 3.5276,-8.83647 4.69016,-12.1122 0.94154,-2.65313 1.06739,-2.86735 1.68458,-2.86735 0.63959,0 0.7025,0.5444 0.46478,4.02066 -0.63036,9.2171 -0.61254,8.68072 -0.30388,9.15203 0.36965,0.56436 1.27601,0.58141 3.77855,0.0712 3.79164,-0.77316 6.76547,-2.08851 13.50689,-5.97419 5.68434,-3.27637 7.78836,-4.26135 11.39842,-5.33605 5.10207,-1.51884 8.54542,-3.11407 12.66519,-5.86746 3.13664,-2.09633 7.56299,-5.964 7.21923,-6.30798 -0.073,-0.0728 -1.06075,0.0902 -2.1951,0.36256 -5.80523,1.39403 -8.9046,1.3958 -14.28817,0.008 -1.7963,-0.46302 -2.34945,-0.62475 -7.99729,-2.33815 -1.82006,-0.55218 -3.59875,-1.08522 -3.95264,-1.18457 -0.35378,-0.0994 -1.59486,-0.47107 -2.75772,-0.82611 -3.37631,-1.03087 -9.08873,-2.63314 -11.58223,-3.24868 -1.26396,-0.312 -2.58762,-0.64472 -2.94155,-0.73934 -0.35376,-0.0947 -1.84304,-0.41854 -3.30919,-0.71981 -7.94371,-1.63239 -10.20041,-1.89388 -17.1896,-1.99188 -5.41031,-0.076 -5.86587,-0.0557 -8.98759,0.39997 -8.05719,1.17584 -15.08336,3.82737 -21.856865,8.24832 -2.370369,1.54712 -3.408925,2.40876 -3.641709,3.0214 -0.357968,0.9421 0.651815,5.68475 1.952029,9.16819 1.752588,4.6954 4.315837,8.54809 8.201295,12.32702 2.34505,2.28079 2.83629,2.63009 3.19213,2.26992 0.14931,-0.15126 0.56829,-2.0884 1.01052,-4.67331 0.89704,-5.24312 1.35111,-7.36139 1.65722,-7.73044 0.26459,-0.3191 1.20515,-0.36337 1.38921,-0.0654 0.0702,0.1135 0.1916,1.12757 0.26985,2.25349 0.34317,4.93675 2.61464,8.05971 10.37937,14.27091 1.82006,1.45591 4.04418,3.29537 4.94241,4.08764 1.9232,1.69626 2.16172,1.74363 3.71582,0.73803 z M 79.081819,136.99962 c -0.80449,-0.49083 -0.888687,-0.74421 -1.328707,-3.99926 -0.606611,-4.48752 -1.856121,-7.51866 -4.079957,-9.89739 -2.208859,-2.36273 -4.76281,-3.8569 -10.352342,-6.05663 -5.922803,-2.33084 -6.439546,-2.55139 -7.905369,-3.37396 -2.38144,-1.33638 -5.236433,-3.37171 -6.848248,-4.88218 -0.65427,-0.61312 -0.779874,-1.29499 -0.275755,-1.49721 0.640204,-0.25679 6.085747,-0.49016 8.870549,-0.38015 12.363882,0.48847 13.986708,1.16819 19.075937,7.99018 3.712982,4.97715 7.313085,8.66867 11.258591,11.54451 2.388944,1.74128 7.91095,4.83991 9.605359,5.38999 1.171965,0.38048 1.611985,1.41581 0.821872,1.93379 -0.366543,0.24033 -2.722155,0.78817 -6.014945,1.3989 -0.556126,0.10314 -2.748484,0.51609 -4.871903,0.91766 -8.043196,1.52106 -7.12818,1.41618 -7.955072,0.91175 z m 4.002392,-0.65055 c 3.285676,-0.61233 5.797109,-1.09163 11.582265,-2.21043 3.47542,-0.67211 3.89917,-1.0486 2.082473,-1.85016 -4.40876,-1.94526 -8.773067,-4.60098 -11.82628,-7.19642 -3.708033,-3.15209 -5.39055,-4.95684 -8.66212,-9.29135 -5.796968,-7.68038 -7.331319,-8.29525 -20.753184,-8.31637 -6.016016,-0.009 -7.308867,0.0767 -7.065894,0.46989 0.216945,0.35127 3.671796,3.02844 5.243857,4.06353 1.965124,1.29388 3.654834,2.1428 6.37196,3.20133 1.188246,0.46291 3.070495,1.19752 4.182759,1.63248 9.492198,3.71187 12.828849,7.51356 13.970267,15.91725 0.44513,3.2773 0.443277,3.27011 0.952837,3.67118 0.606901,0.47769 0.907542,0.47072 3.92106,-0.091 z m 83.098209,-1.92484 c -3.08136,-0.25161 -6.60845,-0.88338 -7.29219,-1.30621 -0.80452,-0.49753 -1.13063,-1.51505 -0.81908,-2.55561 0.26043,-0.86947 0.4696,-0.9944 3.23935,-1.93378 2.69614,-0.91439 3.81745,-1.38547 6.41613,-2.69557 4.48198,-2.25944 7.17757,-4.28916 13.66674,-10.29055 3.40155,-3.14583 3.94478,-3.50335 4.75938,-3.13194 0.69303,0.31597 0.92396,1.14759 1.15573,4.16197 0.561,7.29697 0.6849,7.88752 1.79914,8.57657 0.5794,0.35834 0.80421,0.38588 2.2795,0.27945 5.27497,-0.38045 4.92864,-0.37731 5.05561,-0.0461 0.21468,0.56015 -0.47253,1.00225 -5.14866,3.31136 -6.8841,3.39942 -9.62838,4.47986 -13.36222,5.26076 -2.18955,0.45792 -8.30999,0.65049 -11.74943,0.36967 z m 12.40955,-0.97436 c 3.59666,-0.9175 6.38383,-2.06971 12.59342,-5.20615 5.2654,-2.65951 5.24486,-2.62296 1.29842,-2.31162 -2.32156,0.18314 -3.19819,0.0896 -3.98367,-0.42546 -0.92836,-0.60865 -1.0421,-1.19213 -1.62925,-8.35738 -0.43227,-5.27443 -0.57427,-5.33258 -4.36251,-1.78656 -9.14291,8.55826 -12.70258,10.8267 -22.25935,14.18506 -0.80478,0.28277 -1.50759,0.64883 -1.60863,0.83779 -0.46376,0.86703 -0.0555,1.96865 0.91588,2.47128 0.43545,0.2253 3.49743,0.76956 6.07459,1.07972 0.35378,0.0425 3.00127,0.0561 5.88309,0.03 4.92688,-0.0448 5.34927,-0.0756 7.07801,-0.51656 z m -75.59821,-3.54729 C 95.866934,128.70541 88.080417,123.59363 82.21471,116.26133 72.653484,104.30952 68.506351,89.038093 71.910599,78.317349 c 0.932278,-2.935984 2.411536,-5.54511 4.250024,-7.496271 0.790203,-0.83862 1.002769,-0.965779 1.6145,-0.965779 0.874019,0 1.087117,0.299453 1.620892,2.277886 2.249574,8.337922 7.286996,14.488871 17.059847,20.830979 1.540312,0.99956 3.887448,2.519729 5.215888,3.378105 7.4605,4.820831 13.23517,11.003401 15.13375,16.202771 1.90376,5.21353 1.71611,9.01581 -0.67393,13.65346 -0.95024,1.84386 -1.59781,2.36522 -3.80004,3.05924 -3.00175,0.94598 -6.22146,1.16833 -9.33777,0.64484 z m 6.66835,-0.45747 c 2.28002,-0.41056 4.44532,-1.24121 5.07136,-1.94549 0.16706,-0.18784 0.60187,-0.88749 0.96648,-1.55486 5.10217,-9.33866 -0.16477,-19.86889 -14.69195,-29.374288 -1.658342,-1.085056 -3.991122,-2.60562 -5.183936,-3.379016 -9.151112,-5.933334 -14.484786,-12.288922 -16.513228,-19.677109 -0.583959,-2.126983 -1.09949,-3.291133 -1.457427,-3.291133 -0.769215,0 -2.918021,2.6663 -4.244815,5.267089 -1.731789,3.394671 -2.369177,6.353122 -2.372824,11.013165 -0.006,7.055087 2.170798,14.625752 6.258469,21.771442 6.536337,11.42617 15.517542,19.00513 24.893771,21.0071 1.80089,0.3845 5.57464,0.46913 7.2741,0.16312 z m 25.42098,-0.27132 c -1.71998,-0.26813 -3.10652,-0.61994 -4.8425,-1.22882 -1.3537,-0.47479 -1.56268,-0.62842 -1.56268,-1.14878 0,-0.5127 0.41357,-0.87229 1.47076,-1.27882 0.45503,-0.17495 1.57191,-0.70954 2.48191,-1.18796 7.62037,-4.00614 13.69056,-11.03713 19.39548,-22.46547 1.27669,-2.557511 1.73873,-2.96944 4.87827,-4.348965 7.25615,-3.188369 15.2196,-5.032879 21.7287,-5.032879 3.14064,0 3.62767,1.232959 1.74609,4.42043 -1.75758,2.977512 -3.39978,4.928184 -6.12592,7.276724 -1.93342,1.66561 -1.92027,1.64369 -2.82537,4.71288 -1.0339,3.5059 -3.43895,7.38772 -6.1976,10.00322 -2.59667,2.46182 -3.7295,3.01534 -8.68833,4.24529 -3.91975,0.97223 -5.09717,1.4397 -7.52165,2.98626 -4.57765,2.92003 -8.81209,3.84573 -13.93716,3.04689 z m 8.30251,-0.90603 c 1.86427,-0.59724 3.94351,-1.60522 5.51759,-2.6748 1.84861,-1.25615 3.65589,-1.98343 6.84432,-2.75427 5.12926,-1.24012 6.49975,-1.86928 8.84442,-4.06027 3.22596,-3.01449 5.38772,-6.57259 6.65783,-10.95814 0.64413,-2.22417 0.78316,-2.43282 2.78974,-4.18694 3.60601,-3.1523 7.316,-8.34788 6.96375,-9.752251 -0.23736,-0.946732 -0.90535,-1.082408 -4.22152,-0.857614 -7.19125,0.48749 -14.61375,2.448648 -20.96305,5.538804 -1.91085,0.929983 -2.20727,1.275181 -3.78285,4.405401 -3.40133,6.75744 -6.61103,11.41049 -10.66305,15.45803 -3.42019,3.41648 -6.47613,5.55011 -10.48395,7.31984 -2.01357,0.88912 -2.10943,1.03421 -1.00212,1.51639 2.70914,1.17965 5.39115,1.64779 8.99464,1.56999 2.59083,-0.0558 3.12784,-0.12318 4.50425,-0.56417 z m -21.95645,-1.85861 c -0.34921,-0.34947 -0.34921,-8.2e-4 0,-3.61732 0.285,-2.9467 0.26384,-4.15063 -0.12584,-7.22304 -0.7357,-5.79772 -3.27576,-10.57165 -7.92382,-14.89246 -1.33703,-1.242877 -2.38776,-2.039398 -5.66023,-4.290741 -0.79627,-0.547824 -1.04755,-0.84178 -1.18232,-1.383294 -0.25779,-1.035623 0.19953,-1.513793 2.58552,-2.704169 4.83368,-2.411387 9.62868,-2.783851 15.1962,-1.180369 2.64604,0.762063 3.93149,1.269179 7.76012,3.061254 5.4153,2.534764 8.93602,3.585639 13.76651,4.109054 3.16025,0.342409 3.3233,0.375077 3.68595,0.737929 0.49719,0.497462 0.33221,1.058066 -1.2524,4.255216 -6.71089,13.54041 -13.31613,19.88707 -23.88776,22.95247 -1.85381,0.53754 -2.55864,0.57929 -2.96222,0.17545 z m 3.75572,-0.93323 c 7.87035,-2.38599 13.8672,-7.46462 19.30096,-16.34565 1.74179,-2.84679 4.78281,-8.80204 4.78281,-9.366217 0,-0.546104 -0.18823,-0.616168 -2.26683,-0.844035 -2.96369,-0.324893 -4.39245,-0.56717 -6.59838,-1.118862 -3.17307,-0.793554 -5.23829,-1.572094 -9.24359,-3.484658 -2.63201,-1.2568 -5.79035,-2.458185 -8.08919,-3.077028 -1.66005,-0.446858 -2.15073,-0.495393 -5.05577,-0.499948 -3.62147,-0.0067 -5.07806,0.304824 -8.21868,1.751895 -3.47745,1.602249 -3.6475,2.287551 -0.9913,3.994066 10.06332,6.465287 14.19511,15.027977 13.04338,27.031067 -0.30728,3.20314 -0.46358,3.11143 3.33659,1.95937 z M 62.033884,105.04377 c -7.163997,-0.99066 -12.616443,-6.66678 -13.532241,-14.087434 -0.507826,-4.114706 0.05961,-7.920025 2.625125,-17.605858 1.675694,-6.326383 1.746797,-6.514653 2.487207,-6.587092 0.510502,-0.04995 0.664569,0.0582 1.310053,0.91978 1.178367,1.572881 2.674616,4.428888 4.077392,7.782829 2.894887,6.921541 3.880455,8.886689 5.549747,11.065959 1.147179,1.497639 1.396844,2.09974 1.818851,4.386492 0.186748,1.011762 0.673686,3.619362 1.082118,5.794667 1.452989,7.738437 1.389691,7.273897 1.059986,7.777407 -0.191437,0.29237 -0.538023,0.48877 -0.995927,0.56448 -0.748936,0.12382 -4.562126,0.11603 -5.482311,-0.0113 z M 67.835,104.43402 c 0.439058,-0.23513 0.462221,-0.92834 0.08967,-2.68549 -0.27352,-1.29009 -0.823405,-4.207148 -1.660125,-8.806551 -0.693794,-3.813743 -0.893266,-4.35768 -2.324364,-6.338661 -1.3035,-1.804337 -2.672503,-4.320243 -3.63124,-6.673302 -2.695286,-6.615124 -3.832476,-9.015568 -5.306815,-11.20176 -1.449643,-2.149581 -1.580336,-2.104815 -2.337548,0.800597 -0.244546,0.938363 -0.81531,3.071998 -1.268345,4.741415 -1.925189,7.094556 -2.508036,10.39436 -2.506042,14.188351 0.002,4.85016 1.42162,8.545086 4.442883,11.568191 2.767019,2.76872 5.643763,4.15059 9.711948,4.66523 1.039137,0.13144 4.400805,-0.0496 4.789951,-0.25803 z m 85.95097,-7.64206 c -0.62715,-0.627532 -0.13456,-1.349854 1.31342,-1.925372 7.05661,-2.805065 13.40326,-7.60228 15.4583,-11.684375 1.48142,-2.942598 0.46143,-6.329965 -2.39475,-7.953252 -1.74735,-0.993093 -2.94927,-1.218552 -6.57667,-1.233655 -1.87067,-0.0081 -3.50457,-0.07815 -3.63096,-0.156406 -0.38827,-0.240299 -0.25926,-0.990335 0.23734,-1.381322 1.61564,-1.271639 9.04599,-1.701875 12.34766,-0.714963 4.55335,1.361071 6.85662,4.194085 6.85662,8.433559 0,3.385025 -2.07457,6.543811 -6.02816,9.178632 -2.21683,1.477377 -4.75588,2.70496 -11.43713,5.529723 -1.26397,0.534373 -2.87489,1.247201 -3.57983,1.584041 -1.40924,0.673375 -2.12584,0.763685 -2.56588,0.32338 z m 2.00914,-0.628848 c 0.30352,-0.178236 1.87528,-0.878097 3.49309,-1.55522 4.96188,-2.076741 6.7318,-2.8675 8.54883,-3.819429 7.358,-3.854762 10.21588,-8.152994 8.72246,-13.118349 -1.28585,-4.275144 -6.37261,-6.613026 -13.01479,-5.981602 -3.16713,0.301071 -5.71002,1.094526 -5.35417,1.670649 0.049,0.07889 1.5152,0.141125 3.25889,0.138295 5.46243,-0.0091 8.2205,1.15126 9.64708,4.058021 0.77628,1.581677 0.74521,4.027993 -0.0733,5.760444 -1.9919,4.216736 -7.81941,8.748139 -15.0984,11.740317 -1.72767,0.710216 -2.03784,0.96458 -1.68907,1.385094 0.25815,0.311353 0.68564,0.235127 1.55925,-0.27822 z m -8.61005,0.05944 c -0.3708,-0.370814 0.1051,-1.561392 2.42145,-6.063045 3.15184,-6.124779 4.11021,-7.745726 5.72108,-9.676533 2.40184,-2.878841 4.84143,-4.201657 7.79653,-4.227422 5.8271,-0.05082 7.592,3.150877 4.04426,7.336611 -1.86256,2.197565 -5.76746,4.970725 -12.66014,8.990949 -1.51673,0.884656 -3.5273,2.093022 -4.4679,2.685265 -1.5766,0.992709 -2.50629,1.303389 -2.85528,0.954175 z m 1.89359,-0.991541 c 0.63463,-0.410446 2.98461,-1.829022 5.22211,-3.152381 9.10762,-5.386628 12.34929,-7.929592 13.82644,-10.846405 1.15586,-2.282381 -0.11453,-3.897265 -3.47517,-4.417882 -4.8192,-0.746557 -8.55688,2.166668 -12.66716,9.873064 -2.4178,4.533199 -4.56971,8.932795 -4.45777,9.114018 0.17198,0.278467 0.32691,0.221478 1.55155,-0.570414 z m -7.43963,-0.450759 c -1.30855,-0.627997 -3.24998,-1.5282 -6.52648,-3.026246 -2.98101,-1.362901 -3.30924,-1.60216 -3.30924,-2.41184 0,-0.56806 0.25737,-0.818685 1.49752,-1.459036 2.93669,-1.516196 7.29364,-5.435481 9.51283,-8.55727 2.64711,-3.723713 3.85627,-7.474263 3.25122,-10.084679 -0.70219,-3.029694 -2.74674,-4.854545 -7.01903,-6.264807 -1.76437,-0.582408 -2.15965,-0.832255 -1.99521,-1.261064 0.3768,-0.982767 4.99593,-0.478833 7.61644,0.830946 6.09965,3.048712 7.13728,12.271473 2.82988,25.152925 -0.60416,1.806671 -2.21025,5.573916 -2.82347,6.622478 -0.45022,0.769906 -0.54112,0.830327 -1.29968,0.863767 -0.54258,0.02384 -1.12317,-0.111684 -1.73478,-0.405174 z m 2.20024,-0.203003 c 1.34004,-1.340876 4.18269,-9.303109 5.27966,-14.788244 0.62639,-3.132231 0.62124,-8.659114 -0.0115,-10.669548 -1.48623,-4.733661 -4.53381,-7.079362 -9.49226,-7.306016 -2.28618,-0.104504 -2.36412,0.04088 -0.36774,0.685862 4.90352,1.584208 7.20764,4.016905 7.4028,7.815874 0.2366,4.607962 -3.33085,10.611317 -9.11205,15.33322 -1.28573,1.050146 -3.22097,2.347636 -4.38093,2.937213 -1.3759,0.699327 -1.19635,1.151655 0.82255,2.072379 1.64723,0.751188 3.49095,1.610562 6.46264,3.012311 2.71305,1.279742 2.9574,1.345019 3.3952,0.906949 z m -44.756851,-3.98705 c -0.627279,-0.317597 -0.916939,-0.972962 -0.920165,-2.081968 -0.005,-1.873664 0.580081,-2.290147 7.718856,-5.490925 7.31663,-3.280545 12.41245,-4.797137 18.59205,-5.533282 2.46244,-0.293327 3.08081,1.784034 0.86595,2.909182 -0.33749,0.171512 -2.35119,1.234858 -4.47462,2.362987 -7.68881,4.08493 -11.47059,5.85757 -15.01156,7.036522 -2.99042,0.995647 -5.73951,1.319469 -6.770511,0.797484 z m 4.684451,-0.707826 c 3.35157,-0.822813 8.62448,-3.152464 15.25915,-6.741653 0.91006,-0.492316 2.73012,-1.460947 4.04464,-2.152524 2.72912,-1.43582 3.03346,-1.656793 3.03346,-2.20266 0,-0.951039 -0.73183,-1.033741 -4.08376,-0.461493 -5.30271,0.905273 -8.88224,2.028811 -14.7604,4.63288 -4.75745,2.107576 -7.903931,3.744435 -8.268741,4.301533 -0.769084,1.174502 -0.424371,2.675356 0.687392,2.992839 0.765519,0.218609 2.235409,0.08597 4.088259,-0.368922 z m 13.17914,-2.19326 c -0.34204,-0.137354 -0.41412,-0.286799 -0.36775,-0.764417 0.0679,-0.699828 0.0763,-0.704557 3.36696,-1.896284 6.58939,-2.386473 12.51813,-6.75667 16.79753,-12.3818 1.9756,-2.596836 2.4956,-2.299419 2.35647,1.34774 -0.16856,4.417698 -1.45148,7.390343 -4.34711,10.072889 -1.89479,1.755375 -4.94165,3.18417 -7.72887,3.624399 -1.47745,0.233345 -9.49453,0.231336 -10.0773,-0.002 z m 9.0662,-0.355511 c 6.06476,-0.642386 10.81317,-4.582069 12.21022,-10.130585 0.39617,-1.573594 0.67297,-4.508883 0.49281,-5.226998 -0.16251,-0.64844 -0.4213,-0.471201 -1.60314,1.098544 -4.25394,5.650049 -11.13786,10.571092 -17.90219,12.797612 -1.84766,0.608151 -2.48888,0.960853 -2.22671,1.224785 0.32125,0.323262 6.64608,0.489052 9.02901,0.236633 z M 91.798489,85.602101 c -0.521823,-0.522158 -0.625076,-0.759419 -0.625076,-1.436504 0,-0.918735 0.190716,-1.239663 1.09403,-1.8411 l 0.634413,-0.422396 0.009,-2.574186 c 0.008,-2.384215 0.04168,-2.628482 0.451562,-3.310018 0.962755,-1.600888 2.229767,-2.620243 4.025004,-3.238269 2.24172,-0.77173 2.597383,-0.457678 2.765628,2.441921 0.10359,1.787518 0.16645,2.088695 0.44617,2.142198 0.17899,0.03439 2.56019,-1.105677 5.29155,-2.533161 2.7313,-1.427473 5.20608,-2.643444 5.4994,-2.702149 0.41454,-0.08296 0.63852,-0.0017 1.0052,0.365333 0.44378,0.444049 0.47179,0.581647 0.47179,2.317127 0,1.755394 -0.0227,1.872028 -0.50557,2.400791 -0.35641,0.391861 -3.09923,1.80322 -9.30046,4.785804 -10.004703,4.811929 -10.043625,4.824395 -11.262688,3.60459 z m 7.160049,-2.207493 c 2.613452,-1.274823 4.774262,-2.317869 4.801852,-2.317869 0.42172,0 8.06226,-3.971473 8.35364,-4.342145 0.77412,-0.984706 0.38279,-4.119908 -0.51421,-4.119908 -0.18634,0 -1.07354,0.384967 -1.97164,0.855478 -7.92188,4.150363 -8.22317,4.295337 -8.92688,4.295337 -0.920138,0 -1.070979,-0.372212 -1.070979,-2.642572 0,-1.07604 -0.08085,-1.779757 -0.220611,-1.919583 -0.94386,-0.944414 -4.523414,1.071304 -5.630789,3.170796 -0.457052,0.866559 -0.492117,1.098086 -0.503298,3.322908 -0.01473,2.968262 0.03977,2.72889 -0.716957,3.136688 -1.184769,0.63844 -1.281399,1.696468 -0.235389,2.577186 0.857008,0.721577 1.295976,0.588178 6.635241,-2.016316 z m -33.711203,0.06639 c -0.790113,-1.47725 -0.465167,-9.002047 0.566937,-13.128433 2.000981,-8.000022 6.319843,-13.274135 10.054005,-12.27778 1.567042,0.418124 2.18833,1.387174 2.612241,4.074333 0.446833,2.83251 0.228135,3.558639 -1.306266,4.336638 -6.139096,3.112819 -9.491446,7.990957 -10.104128,14.702983 -0.110817,1.214112 -0.285994,2.310968 -0.389276,2.437439 -0.303757,0.37202 -1.205748,0.280674 -1.433513,-0.14518 z m 1.290787,-1.261855 c 0,-6.8283 3.712842,-12.767177 9.969548,-15.946782 1.846011,-0.938122 1.928155,-1.129087 1.554949,-3.614772 -0.330557,-2.201504 -0.694986,-3.148164 -1.413005,-3.670311 -1.248598,-0.908002 -2.52083,-0.720792 -4.313452,0.634732 -3.565608,2.696196 -5.995569,8.169811 -6.83856,15.404148 -0.371112,3.184839 -0.268421,7.292457 0.200203,8.008109 0.448166,0.684398 0.840307,0.303992 0.840317,-0.815124 z m 19.521467,-3.340098 c -0.52523,-0.210835 -1.980884,-3.221272 -2.663536,-5.508562 -1.399159,-4.688 -1.682908,-9.653173 -0.767431,-13.428913 1.19603,-4.932802 4.3604,-8.814456 6.842738,-8.393816 0.380008,0.06437 0.948348,0.165888 1.262975,0.225525 0.513487,0.09735 0.730031,-0.03133 2.114222,-1.257651 3.049114,-2.701019 5.13854,-3.930411 8.260433,-4.860284 1.62838,-0.485023 1.94854,-0.517666 5.04785,-0.514683 3.84798,0.004 5.53871,0.334524 9.36987,1.833323 3.49308,1.366555 5.85629,2.640648 9.99605,5.389206 5.60444,3.721009 7.54367,7.22649 6.83499,12.355309 -0.4901,3.546856 -1.68755,4.113069 -3.20922,1.517509 -3.97096,-6.77336 -9.361,-10.912523 -16.37323,-12.573433 -2.85958,-0.677318 -8.93091,-0.638877 -12.31767,0.07801 -3.414463,0.722731 -7.772348,2.159849 -9.649538,3.182171 -1.314641,0.715956 -1.384852,0.947366 -1.357922,4.475389 0.02685,3.494803 0.475226,6.088481 1.609221,9.30497 0.636807,1.806253 0.75129,2.33196 0.694144,3.187528 -0.04659,0.697381 -4.672021,5.285405 -5.21308,5.170889 -0.03026,-0.0067 -0.24669,-0.08858 -0.480866,-0.182521 z m 2.73022,-2.30385 c 1.085544,-1.070373 2.12381,-2.225016 2.307252,-2.56586 l 0.333542,-0.619718 -0.77222,-2.355006 c -1.261712,-3.847737 -1.530684,-5.384293 -1.638345,-9.359621 -0.119653,-4.418825 -0.12351,-4.408771 2.085899,-5.444769 0.857119,-0.401906 2.674377,-1.09819 4.03839,-1.547306 14.247623,-4.691271 26.314693,-1.251622 33.305453,9.493512 2.04056,3.136428 2.1476,3.262426 2.55962,3.013567 0.6401,-0.386596 0.86967,-1.48825 0.87798,-4.213077 l 0.006,-2.575408 -0.76796,-1.563638 c -1.32123,-2.690326 -3.08184,-4.316108 -7.95373,-7.344543 -6.7916,-4.221737 -11.75789,-5.945825 -17.10864,-5.939364 -4.95853,0.0063 -8.447826,1.438015 -12.656293,5.194283 -1.858184,1.658512 -1.891496,1.670585 -3.809062,1.380791 -0.7618,-0.115126 -1.061629,-0.07278 -1.654615,0.233614 -1.98486,1.025671 -4.02301,4.247701 -4.910585,7.762907 -0.58972,2.33563 -0.571626,7.39354 0.03627,10.117666 0.522063,2.339807 1.476302,5.146526 2.318993,6.820912 0.572397,1.137312 0.80425,1.402535 1.261142,1.442664 0.09097,0.0078 1.053544,-0.861241 2.139098,-1.931615 z M 118.79622,75.8041 c -0.4213,-0.170113 -0.26343,-1.112732 0.25475,-1.520514 1.50983,-1.188355 3.2513,-0.787787 2.71014,0.623366 -0.25549,0.666398 -2.13086,1.233864 -2.96485,0.897148 z m 1.79983,-0.617738 c 0.4779,-0.24397 0.72804,-0.496775 0.72804,-0.73583 0,-0.45419 -0.52611,-0.479771 -1.34198,-0.06525 -0.94208,0.47861 -1.08319,0.632698 -0.84391,0.921199 0.28421,0.342847 0.60224,0.31665 1.45785,-0.120112 z m 5.14033,0.476773 c -0.25284,-0.146423 -1.06416,-0.932862 -1.80309,-1.74761 -1.50047,-1.654448 -3.12821,-2.897773 -4.74603,-3.625178 -2.11067,-0.949009 -2.38185,-1.667049 -1.25941,-3.334807 0.88608,-1.316556 1.56914,-1.347203 2.87092,-0.128812 0.57207,0.535439 1.65815,1.203305 3.03043,1.863466 3.0985,1.490639 4.47476,3.103104 4.47922,5.247924 0.002,1.500377 -1.37003,2.421319 -2.57204,1.72501 z m 1.75494,-0.740608 c 0.5836,-0.584005 0.56861,-1.047179 -0.0782,-2.415396 -0.69133,-1.46229 -1.62072,-2.339358 -3.32354,-3.136522 -2.44366,-1.143959 -2.8408,-1.37892 -3.7227,-2.202404 -0.47599,-0.444441 -0.94831,-0.808068 -1.04966,-0.808068 -0.25741,0 -1.03036,0.863751 -1.4186,1.585104 -0.31369,0.582715 -0.31256,0.617634 0.0265,0.994136 0.19427,0.214604 0.94522,0.664042 1.66916,0.998728 1.64552,0.76073 2.97555,1.740371 4.39429,3.236628 0.60666,0.63984 1.32422,1.396441 1.59449,1.681336 0.61235,0.645459 1.30415,0.669566 1.90693,0.06644 z m 26.55728,0.0836 c -0.32352,-0.323873 -0.36811,-0.615709 -0.37074,-2.437443 -0.006,-3.495277 -0.74278,-5.864264 -2.80044,-8.996949 -5.25389,-7.998763 -19.31758,-16.052634 -30.14956,-17.265784 -0.93592,-0.10481 -1.84224,-0.234108 -2.01402,-0.287284 -0.38079,-0.117884 -0.58142,-0.682393 -0.42158,-1.186295 0.2279,-0.718113 3.91074,-2.269107 7.44426,-3.134976 2.58617,-0.633731 7.97532,-0.640327 10.38726,-0.01284 6.40577,1.666836 10.51321,5.676508 12.41866,12.123066 0.6649,2.249501 0.79777,2.420729 2.69178,3.46823 2.87474,1.589923 4.80578,3.840263 5.50631,6.416746 0.58749,2.160906 0.45593,9.289235 -0.19464,10.548198 -0.53743,1.039822 -1.82756,1.435171 -2.49708,0.765195 z m 1.73545,-0.724231 c 0.63008,-0.658102 0.8134,-2.008281 0.82848,-6.10309 0.0115,-3.277632 -0.15948,-4.280857 -1.02744,-6.008466 -0.84088,-1.673729 -2.30092,-3.074803 -4.60516,-4.419289 -2.10778,-1.229848 -2.21154,-1.351317 -2.73429,-3.200698 -1.12876,-3.992876 -2.82827,-6.787586 -5.45557,-8.971189 -5.70204,-4.739091 -14.57014,-5.273367 -22.7069,-1.368009 -1.96419,0.942742 -1.78929,1.418112 0.59745,1.623683 5.08803,0.438228 12.95331,3.273369 18.66031,6.726365 9.92369,6.004226 14.99648,12.853348 14.86301,20.067583 -0.0189,0.968939 0.0265,1.858833 0.10063,1.977541 0.23775,0.384976 0.94958,0.228892 1.47938,-0.32444 z m -41.5095,-0.531954 c -0.88146,-0.974591 0.27553,-2.974828 1.72095,-2.974828 1.48472,0 1.88099,1.934126 0.60243,2.940446 -0.61623,0.485014 -1.89862,0.503996 -2.32338,0.03439 z m 1.63125,-0.251265 c 1.027,-0.46822 1.25156,-1.872878 0.336,-2.102771 -1.28553,-0.322847 -2.50041,1.719567 -1.3086,2.200005 0.36359,0.146536 0.45865,0.137012 0.97244,-0.09725 z M 103.05115,72.50768 c -0.2857,-0.744961 0.21549,-2.96367 1.03249,-4.570395 0.60948,-1.19868 2.06122,-2.582486 3.31923,-3.163933 1.07664,-0.497599 1.28644,-0.528721 3.56485,-0.528721 2.30904,0 2.44284,0.02076 2.89557,0.445973 0.61052,0.573583 0.63773,1.457009 0.0609,1.981953 -0.22753,0.207078 -0.99278,0.604079 -1.70055,0.882183 -2.71248,1.065731 -4.80603,2.343446 -6.79486,4.146916 -1.25831,1.141007 -2.13531,1.438296 -2.37778,0.806024 z m 1.96281,-1.14362 c 1.96328,-1.827552 4.66589,-3.4525 7.27698,-4.375335 1.63657,-0.578401 2.02453,-1.505677 0.89378,-2.136137 -0.73099,-0.407565 -3.90534,-0.271026 -5.18806,0.223144 -1.3724,0.528751 -2.95209,2.051729 -3.62195,3.4919 -0.67195,1.44468 -1.11356,3.30994 -0.85696,3.619342 0.27759,0.334638 0.21676,0.368084 1.49621,-0.822914 z M 94.882058,70.952454 c -1.973359,-1.203849 -2.873267,-7.208108 -1.61962,-10.806229 0.754607,-2.165832 1.248288,-2.60099 4.30679,-3.796325 7.734992,-3.023018 13.245302,-2.037268 21.673372,3.877204 6.06902,4.259005 6.11815,4.303098 5.87476,5.273293 -0.19083,0.760835 -1.75969,1.101053 -3.03155,0.657413 -0.60405,-0.21071 -0.65146,-0.311277 -0.90122,-1.91317 -0.17121,-1.097997 -0.6155,-1.280264 -1.50917,-0.619158 -0.75608,0.559363 -1.53145,0.506566 -2.92925,-0.199452 -0.63259,-0.319519 -1.99167,-0.861387 -3.02013,-1.204155 -6.48152,-2.160115 -11.3358,0.128619 -14.919235,7.03426 -1.037354,1.999084 -2.436903,2.603987 -3.924747,1.696328 z m 2.497306,-0.589526 c 0.237874,-0.2236 0.771609,-1.029449 1.186111,-1.790756 2.269365,-4.168208 5.142335,-6.698893 8.370425,-7.373107 2.73555,-0.571354 6.61234,0.09079 9.87514,1.686675 1.72368,0.843061 1.86054,0.856121 2.6746,0.255162 1.20106,-0.886664 2.02253,-0.496269 2.16081,1.026873 0.12169,1.343285 0.41436,1.64051 1.61402,1.64051 1.01075,0 1.45402,-0.278211 1.34209,-0.842276 -0.0942,-0.473558 -7.01711,-5.390819 -9.98885,-7.094712 -5.29076,-3.0336 -10.06112,-3.466715 -15.810702,-1.435483 -3.442969,1.216347 -4.229145,1.798611 -4.971759,3.682176 -1.200809,3.04584 -0.915497,7.092966 0.683414,9.694315 0.720814,1.172745 1.951298,1.409251 2.864701,0.55063 z"
       id="rose-path" />
  </g>
</svg>
