<?xml version="1.0" encoding="UTF-8" standalone="no"?>
<!-- Created with Inkscape (http://www.inkscape.org/) -->

<svg
   width="210mm"
   height="297mm"
   viewBox="0 0 210 297"
   version="1.1"
   id="svg1"
   xml:space="preserve"
   xmlns="http://www.w3.org/2000/svg"
   xmlns:svg="http://www.w3.org/2000/svg"><defs
     id="defs1" /><g
     id="layer1"><path
       style="display:inline;fill:#850834;fill-opacity:1;stroke-width:0.184317"
       d="m 98.715685,257.19072 c -0.815676,-0.15392 -1.270017,-0.63615 -1.101017,-1.16863 0.06259,-0.19725 0.466949,-0.90661 0.898545,-1.57637 4.546177,-7.05478 9.327747,-18.46271 10.079337,-24.04741 0.817,-6.07085 -3.22457,-12.56446 -12.310236,-19.77887 -3.495258,-2.77539 -9.247422,-6.9597 -9.945504,-7.23468 -0.59363,-0.23384 -0.984806,-0.21679 -3.642933,0.15885 -14.519329,2.05185 -26.699732,-0.5567 -37.914812,-8.11975 -3.699468,-2.49479 -9.431081,-7.5775 -9.117355,-8.08513 0.198417,-0.32104 0.569576,-0.21782 2.529198,0.70332 2.44008,1.14703 2.745124,1.27417 4.293042,1.78924 4.334748,1.44245 11.248128,2.22812 12.276764,1.39517 0.907742,-0.73504 0.04442,-1.19153 -5.80298,-3.06833 -1.320945,-0.42396 -2.74636,-1.03833 -3.594181,-1.54911 -3.733309,-2.24914 -10.119395,-7.06019 -14.583736,-10.98684 -2.445942,-2.15134 -2.813856,-2.55146 -2.731337,-2.97033 0.07708,-0.39115 0.0823,-0.39135 4.393287,-0.16411 2.530008,0.13337 2.888615,0.11631 3.107897,-0.1479 0.577133,-0.69541 0.151932,-1.09482 -2.962324,-2.78264 -8.345043,-4.52273 -17.739292,-11.00669 -22.9578961,-15.84564 -1.798583,-1.66774 -1.446574,-2.22128 0.7415271,-1.16605 4.919087,2.37228 10.551629,2.74656 20.132371,1.33777 8.889773,-1.30717 14.524606,-0.68362 19.263544,2.13173 1.734495,1.03044 2.11723,0.96124 2.11723,-0.38285 0,-1.01183 0.0018,-1.01385 0.60725,-1.07211 1.363448,-0.13106 5.149927,1.52873 7.381822,3.23581 0.744529,0.56944 2.067464,1.80853 2.939892,2.75354 1.653821,1.79142 2.037643,1.99107 2.515724,1.30853 0.385222,-0.54997 0.361446,-1.41776 -0.06993,-2.55306 -0.579953,-1.5263 -0.136505,-1.90488 1.487604,-1.27001 3.711019,1.45068 8.032478,4.74911 10.342615,7.8942 1.164072,1.58481 1.642891,2.05234 2.101932,2.05234 0.739738,0 0.852816,-0.56674 0.43755,-2.19319 -0.414196,-1.62221 -0.473215,-2.5156 -0.178252,-2.69789 0.516087,-0.31896 3.459279,2.49767 4.825565,4.61804 2.990359,4.64084 4.111725,11.11077 3.669087,21.16953 -0.145038,3.29571 -0.231593,4.08568 -0.474247,4.32834 -0.220498,0.2205 -0.378882,0.24833 -0.615932,0.10823 -0.287516,-0.16995 -6.088469,-8.64436 -6.785334,-9.91246 -0.158015,-0.28757 -0.360119,-1.22871 -0.449126,-2.09142 -0.212775,-2.0623 -0.813353,-2.97047 -1.453947,-2.19861 -0.116802,0.14072 -0.29629,1.43826 -0.398899,2.88339 -0.266356,3.75173 -0.481509,3.98769 -2.065622,2.26548 -3.666009,-3.98558 -7.450663,-6.94254 -13.887952,-10.85078 -4.584055,-2.78309 -14.708476,-7.64046 -15.925336,-7.64046 -0.226987,0 -0.3634,0.12447 -0.3634,0.33158 0,0.30915 4.045039,2.87862 6.433271,4.0865 2.463304,1.24586 12.182891,7.87207 16.880836,11.5083 4.341383,3.36028 5.623658,4.49695 5.623658,4.98515 0,0.47244 -0.57435,0.96715 -1.594563,1.37346 -0.319458,0.12723 -0.775643,0.43905 -1.013744,0.69296 l -0.432923,0.46162 0.435135,0.35298 c 0.239317,0.19414 0.612559,0.35406 0.829427,0.3554 1.099248,0.007 3.948549,0.77419 5.238104,1.41083 2.419086,1.19433 3.328193,2.02519 7.125528,6.51237 4.027012,4.75857 4.881248,5.47233 13.650718,11.40592 5.032143,3.40485 8.371213,6.51232 9.842853,9.16018 1.00037,1.79988 1.25671,2.10489 1.76912,2.10489 0.80002,0 1.06494,-0.59249 1.21673,-2.72132 1.03715,-14.54517 1.10304,-38.38486 0.12944,-46.81812 -0.25841,-2.23821 -0.15779,-2.44219 1.26658,-2.56789 1.81146,-0.15985 3.61386,1.39689 3.82739,3.30575 0.11628,1.03948 0.33347,4.93001 0.67086,12.01697 0.42717,8.97254 0.0628,24.57858 -0.73418,31.43941 -0.12621,1.08675 -0.10498,1.47107 0.0993,1.79709 0.5466,0.87217 0.76877,0.60148 3.3848,-4.12372 11.07747,-20.00873 18.5605,-27.74252 32.53194,-33.6221 3.08564,-1.29852 3.18182,-1.36559 4.76782,-3.32456 3.85106,-4.75672 8.7816,-7.1748 16.36406,-8.0254 2.98015,-0.33432 6.05468,-0.26875 9.63941,0.20559 2.44975,0.32415 3.11689,0.55861 3.19803,1.12388 0.0826,0.57538 -0.30521,0.78327 -2.01826,1.082 -3.66916,0.63985 -6.36291,2.0458 -11.70195,6.10759 -3.51728,2.67585 -5.92749,4.03396 -8.17634,4.60726 -1.58788,0.40478 -5.05741,0.26238 -6.91129,-0.28368 -1.82167,-0.53656 -2.28023,-0.48818 -4.49043,0.47368 -6.97666,3.0362 -12.82483,7.08579 -18.04211,12.4933 -3.11411,3.22767 -6.66412,7.92782 -8.27232,10.95244 -0.9671,1.81884 -0.3083,2.29356 1.82101,1.31209 2.54512,-1.17313 3.88536,-1.50177 6.52891,-1.60095 2.90913,-0.10915 4.59432,0.18559 9.27568,1.62225 1.67267,0.51333 3.61388,1.08874 4.31379,1.27872 1.37561,0.37335 1.88315,0.7249 1.70749,1.18265 -0.12863,0.33522 -0.67933,0.3709 -1.59889,0.1036 -1.66897,-0.48516 -5.62869,-1.28173 -7.37146,-1.48291 -8.88878,-1.02614 -15.65723,2.77776 -22.15748,12.45263 -2.17741,3.24081 -2.58286,4.26005 -6.56208,16.49637 -5.11009,15.7138 -9.43026,22.11592 -14.303398,21.19636 z m -5.149079,-54.55227 c -0.813261,-0.90017 -1.5739,-2.39511 -2.206698,-4.33691 -1.781184,-5.46568 -1.653231,-13.82188 0.22706,-14.82817 0.672425,-0.35988 0.846052,0.20046 1.482056,4.7829 0.189939,1.36855 0.73666,5.20017 1.214944,8.51468 0.478265,3.31452 0.8201,6.1553 0.759644,6.31284 -0.189957,0.49506 -0.791181,0.31378 -1.477006,-0.44534 z M 127.8227,176.79309 c -0.20274,-0.11474 -0.82907,-0.63061 -1.39182,-1.14638 -0.56276,-0.51575 -2.84369,-2.40109 -5.06872,-4.18964 -8.05513,-6.47494 -10.31228,-9.5963 -10.69334,-14.78768 -0.13998,-1.90691 -0.34023,-2.31263 -0.974,-1.97344 -0.47146,0.25232 -1.05584,2.80293 -1.96703,8.58537 -0.78311,4.96966 -0.89342,5.04113 -3.73633,2.42113 -5.551274,-5.11606 -8.893917,-10.92529 -10.513952,-18.27239 -0.881202,-3.99633 -0.768271,-4.6404 1.042294,-5.94407 5.939498,-4.27667 12.636508,-7.35005 19.379418,-8.89356 12.55001,-2.87279 26.24025,-1.46008 47.28487,4.87941 1.11511,0.33592 3.89369,1.16825 6.17461,1.84962 2.28093,0.68137 5.18392,1.55492 6.4511,1.94121 5.5743,1.6993 9.15797,2.33725 12.053,2.14559 1.66884,-0.11048 5.88456,-0.86817 6.82962,-1.22749 0.27207,-0.10343 0.77955,-0.18806 1.12777,-0.18806 1.01772,0 0.79836,0.52782 -0.89506,2.15358 -4.76651,4.57603 -10.56782,8.00246 -16.93302,10.00116 -5.92629,1.86088 -8.10361,2.87918 -14.83628,6.93869 -5.0314,3.0337 -9.74663,4.79475 -14.28352,5.33462 -1.25011,0.14875 -1.81716,-0.242 -1.81421,-1.25019 0.002,-0.67411 0.47387,-8.28367 0.65489,-10.5602 0.0993,-1.24898 0.0699,-1.52238 -0.18647,-1.73517 -0.48041,-0.3987 -0.67825,-0.043 -1.94355,3.49424 -1.49454,4.17804 -3.90652,10.28461 -4.66184,11.80262 -0.56246,1.13041 -0.66206,1.22566 -1.93623,1.85147 -1.06456,0.52286 -1.49767,0.86705 -2.08735,1.65885 -1.54504,2.07456 -3.97845,4.25171 -5.54875,4.96443 -0.91537,0.41547 -1.03091,0.42654 -1.5261,0.14628 z M 78.98024,136.60144 c -0.428924,-0.37071 -0.517728,-0.67871 -0.837001,-2.90299 -0.43038,-2.99828 -0.478137,-3.24219 -0.956587,-4.8844 -1.114546,-3.82551 -3.792801,-7.12992 -7.42379,-9.15943 -1.84304,-1.03015 -10.66893,-4.75651 -11.265785,-4.75651 -0.31297,0 -3.755053,-1.87684 -5.230584,-2.85205 -1.922481,-1.2706 -4.746402,-3.51087 -5.048294,-4.00491 -0.263832,-0.43174 -0.07752,-0.56046 1.042073,-0.71996 1.443404,-0.20563 9.911516,-0.19094 13.003212,0.0225 7.179994,0.49581 9.209121,1.64794 13.954988,7.92363 4.577604,6.05316 8.652355,9.92527 13.727098,13.04443 2.568034,1.57843 5.991131,3.38452 7.056649,3.72322 0.383749,0.12198 0.835749,0.43245 1.004454,0.68993 0.293507,0.44795 0.288696,0.48277 -0.111825,0.8071 -0.23023,0.18642 -0.723702,0.39125 -1.096631,0.45518 -0.37291,0.0639 -1.258627,0.23717 -1.968247,0.38496 -0.70962,0.1478 -2.368473,0.47354 -3.686339,0.72388 -1.317867,0.25033 -3.267018,0.62073 -4.331449,0.8231 -6.86402,1.30504 -7.088739,1.32462 -7.831942,0.68227 z m 88.28631,-2.34463 c -3.01967,-0.20381 -7.27159,-0.87948 -7.83347,-1.24481 -0.91234,-0.59317 -1.23429,-1.47075 -0.89579,-2.44176 0.24295,-0.69689 0.27895,-0.71614 3.41514,-1.82533 7.71241,-2.72768 11.61626,-5.25689 19.83469,-12.85042 3.54785,-3.27809 3.98282,-3.56907 4.66603,-3.12141 0.57516,0.37685 0.74364,1.14699 0.9891,4.52116 0.65036,8.93994 0.63444,8.92028 6.69463,8.26381 2.11111,-0.22868 2.65907,-0.1106 2.17778,0.46931 -0.63294,0.76267 -11.74151,5.93036 -15.04003,6.99662 -3.57604,1.15597 -8.59826,1.59797 -14.00808,1.23283 z m -63.71734,-4.51745 C 92.969401,128.009 82.371857,118.8509 76.030818,105.95874 69.719806,93.127655 69.257225,80.815788 74.787748,72.873846 c 1.276064,-1.832459 2.422497,-2.949071 3.027793,-2.949071 0.666454,0 0.911577,0.414398 1.516598,2.563845 1.56662,5.565773 3.681233,9.114693 8.032478,13.480705 2.682144,2.691257 5.44076,4.861685 9.362159,7.365945 7.614484,4.862725 9.908324,6.554805 13.095974,9.66037 2.85052,2.77714 5.47862,6.20098 6.39357,8.32945 2.40621,5.59766 2.33764,9.96933 -0.23327,14.87197 -0.36157,0.68951 -0.9467,1.49211 -1.30026,1.78355 -1.77785,1.46545 -7.44921,2.36134 -11.13358,1.75875 z m 33.39719,-0.59031 c -3.52918,-0.36542 -7.92563,-1.65433 -7.92563,-2.32356 0,-0.33394 0.52073,-0.78743 1.1059,-0.96307 0.25344,-0.0761 1.20291,-0.50965 2.10993,-0.9635 8.04392,-4.02497 13.87118,-10.59324 20.03021,-22.57737 1.57546,-3.065527 1.76417,-3.239385 5.11083,-4.708754 6.12349,-2.688567 12.1018,-4.251042 18.45964,-4.824566 6.49994,-0.586342 7.06721,0.197923 3.78228,5.229094 -1.4433,2.210546 -2.81363,3.765636 -4.99119,5.664166 -2.19581,1.91444 -2.23931,1.97966 -2.93302,4.3969 -1.09925,3.83045 -3.51946,7.87391 -6.29399,10.51542 -2.80045,2.66622 -3.64613,3.06191 -9.83895,4.60365 -2.90992,0.72445 -4.35325,1.33149 -6.55121,2.75534 -3.86622,2.50455 -8.04734,3.61223 -12.0648,3.19625 z m -15.09339,-2.80664 c -0.32655,-0.2068 -0.3281,-0.58905 -0.0168,-4.14285 0.22945,-2.61977 0.22416,-3.2118 -0.0503,-5.62167 -0.77821,-6.83409 -3.06278,-11.42208 -7.97707,-16.01994 -1.4236,-1.331929 -2.34424,-2.034224 -5.78632,-4.413991 -1.99942,-1.382338 -1.69734,-2.191799 1.39292,-3.732514 3.01517,-1.503274 4.55007,-1.889133 7.9012,-1.986303 4.45266,-0.12911 7.84837,0.690365 13.21406,3.188905 6.95229,3.237336 9.9878,4.194661 15.22961,4.803046 1.38688,0.160964 2.82761,0.370339 3.20164,0.465276 1.17224,0.29754 1.12004,0.601757 -0.73824,4.303051 -6.84626,13.63617 -13.48625,19.96905 -23.99518,22.88532 -1.7262,0.47903 -1.99884,0.51021 -2.37551,0.27167 z M 62.079407,104.75793 c -4.767599,-0.75224 -8.538669,-3.2157 -11.117835,-7.262752 -3.158271,-4.955725 -3.183025,-11.125815 -0.09031,-22.501686 0.22048,-0.810995 0.760326,-2.815971 1.199664,-4.455504 0.900462,-3.360417 1.06174,-3.746602 1.564722,-3.746602 0.825501,0 3.150419,3.94604 5.158277,8.755056 2.858737,6.846898 3.873642,8.869327 5.584196,11.12763 1.212971,1.6014 1.286495,1.802766 1.96021,5.368739 0.646197,3.420241 1.303048,6.906086 1.837124,9.749449 0.37892,2.01722 0.31826,2.62272 -0.287718,2.87272 -0.516714,0.21317 -4.62925,0.27898 -5.808325,0.093 z m 92.222743,-8.084782 c -0.13559,-0.08594 -0.21853,-0.354237 -0.18433,-0.596208 0.0674,-0.47666 0.33008,-0.635608 2.91913,-1.766306 6.77684,-2.95962 12.30065,-7.41979 14.13621,-11.414204 0.66384,-1.44461 0.71523,-3.755851 0.11289,-5.078405 -1.35839,-2.982718 -4.4065,-4.279823 -9.82715,-4.181888 -2.86501,0.05177 -3.31605,-0.01397 -3.31605,-0.483316 0,-1.525776 8.18913,-2.475748 12.16135,-1.410762 4.12573,1.106145 6.50761,3.476033 7.05628,7.020773 0.43657,2.82049 -0.59166,5.556053 -2.98247,7.934822 -2.59907,2.585949 -5.36938,4.125064 -13.83903,7.688637 -0.86169,0.36255 -2.44086,1.061835 -3.50927,1.553971 -1.99607,0.919426 -2.30312,1.001928 -2.72756,0.732886 z m -6.7268,-0.698242 c -0.29209,-0.292076 0.009,-1.005626 2.34012,-5.548509 4.52438,-8.816526 6.5183,-11.51551 9.70192,-13.13252 3.04148,-1.54483 7.64001,-1.079271 8.97999,0.909146 1.85248,2.748883 -1.96441,6.937593 -11.46827,12.585485 -1.11512,0.662684 -3.18869,1.893618 -4.60793,2.735408 -1.41924,0.84179 -2.92715,1.765279 -3.35092,2.052198 -0.74514,0.504518 -1.34037,0.653346 -1.59491,0.398792 z M 139.619,93.42362 c -1.82475,-0.852614 -4.20671,-1.964073 -5.29326,-2.469912 -1.63069,-0.759154 -1.99684,-1.004502 -2.09747,-1.405437 -0.14764,-0.588272 0.0511,-0.809519 1.352,-1.505087 7.97046,-4.261651 14.43314,-14.038091 12.83835,-19.421254 -0.80849,-2.728999 -3.39625,-4.993897 -6.73202,-5.892129 -3.20898,-0.864083 -2.73829,-1.661122 0.76182,-1.290036 4.859,0.515155 7.60604,2.754448 9.06028,7.385603 0.39579,1.260413 0.43204,1.700722 0.43204,5.246538 0,3.553956 -0.043,4.074249 -0.52651,6.358936 -0.96631,4.566639 -2.83581,10.038645 -4.50248,13.178663 -0.9529,1.795269 -1.06086,1.791478 -5.29275,-0.185885 z M 99.349367,90.344682 c -0.984824,-0.526628 -1.241228,-2.199546 -0.505379,-3.297252 1.054275,-1.572708 12.990682,-6.699037 19.209922,-8.250081 1.86586,-0.465334 5.7888,-1.137071 6.92652,-1.18605 1.97059,-0.08483 2.18408,1.54199 0.32674,2.489695 -0.33981,0.173394 -2.8573,1.500764 -5.59441,2.949709 -10.07134,5.331475 -14.6736,7.184117 -18.48813,7.442417 -0.98794,0.0669 -1.556782,0.02187 -1.875263,-0.148438 z m 18.151593,-2.87509 c -0.6044,-0.141255 -0.84128,-0.751342 -0.42362,-1.09097 0.13163,-0.10702 1.15167,-0.501774 2.26679,-0.877231 2.25748,-0.760087 5.02582,-2.01821 7.07779,-3.21663 3.56876,-2.084264 8.19313,-6.23036 10.77436,-9.66001 1.66161,-2.207763 2.09535,-1.905974 1.91321,1.331202 -0.31223,5.549509 -2.89396,9.698167 -7.39908,11.889777 -3.04338,1.48052 -3.77868,1.617851 -9.04858,1.690006 -2.53436,0.0347 -4.85675,0.0049 -5.16087,-0.06614 z M 92.046784,85.333673 c -0.975258,-0.975247 -0.843343,-1.940102 0.387065,-2.831132 l 0.737269,-0.533915 v -2.473825 c 0,-2.232619 0.04196,-2.554694 0.430454,-3.30325 0.860004,-1.657063 2.354815,-2.83435 4.326619,-3.407573 0.981377,-0.285292 1.101995,-0.286374 1.518292,-0.01362 0.427045,0.279812 0.452204,0.392818 0.452204,2.031061 0,2.123809 0.176283,2.680347 0.849003,2.680347 0.43185,0 4.44983,-1.977483 8.84633,-4.353785 2.57511,-1.391838 3.20685,-1.07562 3.20685,1.60519 0,2.438219 0.90133,1.807906 -10.32175,7.218185 -9.50312,4.581142 -9.299524,4.515134 -10.432336,3.382316 z M 65.396301,83.057359 c -0.311717,-0.75128 -0.407359,-5.699693 -0.155509,-8.045915 0.779975,-7.266106 3.422233,-13.229384 7.022551,-15.849152 1.438354,-1.046601 2.466843,-1.346022 3.56622,-1.038216 1.560833,0.43701 2.142519,1.49883 2.532387,4.622793 0.289432,2.319272 0.172981,2.587318 -1.516966,3.491566 -6.257064,3.347994 -9.547417,8.273978 -10.033958,15.021833 -0.0731,1.013744 -0.216204,1.946848 -0.318039,2.073566 -0.321615,0.400261 -0.873644,0.261096 -1.096686,-0.276475 z m 20.415593,-4.8844 c -1.179389,-1.801347 -2.59216,-5.983218 -3.151581,-9.328792 -0.435651,-2.605332 -0.298003,-7.21824 0.278485,-9.333301 1.303582,-4.782735 4.658629,-8.615403 6.86765,-7.845338 1.28985,0.449645 1.711365,0.296632 3.431484,-1.245647 4.525111,-4.057252 8.743278,-5.631844 14.217748,-5.307335 1.71983,0.101945 4.99785,0.737085 6.26678,1.214235 5.09721,1.916689 7.08665,2.946134 11.88844,6.151751 3.41564,2.280231 5.05801,4.024902 6.18629,6.571541 0.41341,0.933138 0.44896,1.240907 0.44714,3.870656 -0.002,2.285928 -0.0644,2.995573 -0.31423,3.550694 -0.61188,1.35949 -1.43531,1.17216 -2.43054,-0.552935 -3.91444,-6.785278 -9.52833,-11.032675 -16.79085,-12.70375 -2.1015,-0.483547 -9.40427,-0.485933 -11.70412,-0.0038 -2.3616,0.495054 -5.274287,1.338463 -7.468119,2.162507 -4.443237,1.668957 -4.413802,1.626647 -4.279804,6.148032 0.115438,3.894641 0.675817,6.718872 2.051393,10.338651 0.642916,1.691775 0.540251,1.924295 -1.964247,4.448853 -2.433906,2.453392 -2.963154,2.732713 -3.531919,1.864003 z m 33.242926,-2.826283 c -0.41941,-0.505372 0.34965,-1.210815 1.7735,-1.626774 0.55448,-0.161985 1.07951,0.284799 0.92111,0.783854 -0.26452,0.833446 -2.19999,1.438894 -2.69461,0.84292 z m 6.97283,-0.0269 c -0.27766,-0.179456 -1.13951,-1.015408 -1.91522,-1.857672 -1.51082,-1.640426 -2.96828,-2.734733 -4.64511,-3.48769 -2.04452,-0.918059 -2.25456,-1.425094 -1.22419,-2.955091 0.8448,-1.254462 1.28242,-1.276965 2.50964,-0.129046 0.57354,0.53648 1.66243,1.205645 3.03819,1.867105 2.40818,1.157824 3.35932,1.966811 4.04574,3.441076 0.56766,1.219193 0.57861,2.166175 0.0321,2.777818 -0.55881,0.625406 -1.21542,0.747908 -1.84114,0.3435 z m 28.40555,-0.626069 c -0.35463,-0.35463 -0.38031,-0.520311 -0.26977,-1.740218 0.53555,-5.909995 -3.42142,-12.268392 -11.13457,-17.892012 -6.41412,-4.676494 -15.94172,-8.586758 -22.39452,-9.191035 -1.61686,-0.151412 -1.87599,-0.223673 -2.00467,-0.558999 -0.18916,-0.492908 0.10562,-0.835413 1.19011,-1.382864 7.22319,-3.646255 16.01569,-3.610764 21.73454,0.08774 3.51356,2.2723 5.74429,5.477569 7.127,10.240559 0.54875,1.89029 0.62333,1.978463 2.61027,3.086321 4.87379,2.717472 6.22615,5.760434 5.76051,12.961859 -0.22061,3.411875 -0.34946,3.87813 -1.22055,4.416487 -0.74333,0.459412 -0.91451,0.456004 -1.39835,-0.02784 z M 114.58046,73.45836 c -0.94498,-1.044176 0.74637,-3.009685 2.05344,-2.386304 0.3901,0.186046 0.51088,0.388279 0.5558,0.930471 0.11257,1.359191 -1.75414,2.400723 -2.60924,1.455833 z M 103.2967,72.062801 c -0.0611,-0.243324 0.0224,-0.969073 0.18551,-1.612774 1.10395,-4.356684 4.00927,-6.491437 8.42285,-6.188923 1.19955,0.08222 1.56725,0.181211 1.92644,0.518649 0.93648,0.87979 0.41365,1.650846 -1.67574,2.471285 -2.71939,1.067821 -4.81832,2.348031 -6.81226,4.155023 -1.31298,1.189867 -1.86829,1.368043 -2.0468,0.65674 z M 95.138259,70.655386 C 94.3943,70.201807 93.547105,68.45543 93.136042,66.527992 c -0.549891,-2.57822 0.12246,-6.892498 1.28233,-8.228497 1.429046,-1.646062 7.292848,-3.488715 11.101978,-3.488715 4.31328,0 7.95142,1.454739 13.67225,5.466946 6.0183,4.220833 6.10218,4.292949 5.86445,5.041973 -0.232,0.730942 -2.47847,0.901312 -3.14153,0.23825 -0.14709,-0.147089 -0.26743,-0.499967 -0.26743,-0.784179 0,-1.827506 -0.64846,-2.404503 -1.80307,-1.604361 -0.9425,0.653148 -1.36803,0.61975 -3.23179,-0.253638 -2.51839,-1.180162 -4.16274,-1.645166 -6.26818,-1.77258 -5.09524,-0.308348 -8.6696,2.090571 -11.640627,7.812551 -1.030092,1.983886 -2.191805,2.53756 -3.566164,1.699644 z"
       id="path1" /><path
       style="display:inline;fill:#008000;fill-opacity:1;stroke:#00a700;stroke-width:1.14798;stroke-opacity:1"
       d=""
       id="path7"
       transform="scale(0.26458333)" /><path
       style="display:inline;fill:#338000;fill-opacity:1;stroke:#00a700;stroke-width:1.14798;stroke-opacity:1"
       d=""
       id="path9"
       transform="scale(0.26458333)" /><path
       style="display:inline;fill:#338000;fill-opacity:1;stroke:#00a700;stroke-width:1.85586;stroke-opacity:1"
       d=""
       id="path10"
       transform="scale(0.26458333)" /><path
       style="display:inline;fill:#ffb444;fill-opacity:1;stroke-width:1.01172;stroke-dasharray:none"
       d="m 317.41717,265.04957 c -0.81671,-0.29845 -1.08953,-0.97904 -0.69806,-1.74148 0.15185,-0.29575 0.95437,-1.66764 1.78342,-3.04864 1.51854,-2.5296 4.26159,-7.92246 4.94565,-9.72314 0.20296,-0.53435 0.60791,-1.55744 0.89988,-2.2735 1.35875,-3.3326 2.92264,-8.56542 3.13012,-10.47343 0.67117,-6.17191 -3.01712,-12.17372 -11.99173,-19.51363 -2.94886,-2.41172 -9.56018,-7.29816 -10.16217,-7.51086 -0.37543,-0.13265 -1.22038,-0.0776 -3.06857,0.19985 -17.69993,2.65734 -33.29093,-2.18033 -45.43913,-14.09913 -1.86057,-1.8254 -2.15822,-2.28275 -1.78355,-2.74033 0.27196,-0.33215 0.46591,-0.27612 2.63814,0.76204 4.82882,2.30775 8.22911,3.18811 13.69443,3.54549 1.90765,0.12474 2.74096,-0.0245 2.74096,-0.4908 0,-0.37412 -1.27707,-0.95398 -4.12881,-1.87478 -3.87791,-1.25214 -4.6567,-1.62943 -7.79887,-3.77811 -4.22333,-2.88806 -8.74124,-6.45637 -12.7098,-10.03841 -2.13353,-1.92575 -2.44677,-2.34423 -2.16051,-2.88639 0.23891,-0.45245 0.25495,-0.45318 4.09223,-0.18397 2.08938,0.14659 2.96074,0.14483 3.23977,-0.007 0.75831,-0.41128 0.41265,-0.78478 -1.84879,-1.99755 -7.39943,-3.9682 -13.92874,-8.34181 -20.88533,-13.98994 -2.95279,-2.3974 -4.0695,-3.53791 -4.00601,-4.0915 0.0823,-0.71742 0.70963,-0.70579 2.22841,0.0414 1.5763,0.77546 3.75002,1.48159 5.62564,1.82746 2.179,0.40181 7.53748,0.31117 11.46892,-0.19401 5.60806,-0.72066 7.9725,-0.92683 10.73491,-0.93608 5.0196,-0.0168 7.80077,0.71423 12.05257,3.16791 0.92656,0.53472 1.0538,0.43746 0.9997,-0.76429 -0.0605,-1.3429 0.40648,-1.49516 2.53741,-0.82729 3.39728,1.0647 6.07129,2.81803 8.69414,5.70065 0.82053,0.90183 1.63987,1.63969 1.82077,1.63969 0.57882,0 0.75824,-0.88431 0.41513,-2.04596 -0.50509,-1.71005 -0.51104,-1.78397 -0.17097,-2.12865 0.44795,-0.45402 1.25483,-0.28993 3.18506,0.64772 3.55179,1.72538 7.01667,4.58933 9.22125,7.62202 1.18493,1.63004 1.50952,1.93773 1.8885,1.79031 0.37084,-0.14422 0.35001,-0.7112 -0.0961,-2.6153 -0.72843,-3.10875 0.36873,-3.13543 3.24378,-0.079 2.94338,3.12917 4.73208,7.47659 5.38293,13.08325 0.4976,4.28653 0.38223,14.75231 -0.17007,15.42683 -0.45072,0.55045 -1.06231,0.34527 -1.76999,-0.59379 -1.62154,-2.15173 -6.30499,-9.58796 -6.38772,-10.14226 -0.0492,-0.32941 -0.13799,-1.09942 -0.19737,-1.71118 -0.0594,-0.61176 -0.23703,-1.31194 -0.39477,-1.55594 -0.53344,-0.82519 -0.75759,-0.17215 -0.97451,2.83898 -0.10994,1.52609 -0.29116,2.88618 -0.4027,3.02241 -0.45738,0.55861 -1.04892,0.26726 -2.40166,-1.18284 -3.75933,-4.02986 -7.33883,-6.81905 -13.8049,-10.7569 -4.83632,-2.94536 -14.80846,-7.76187 -15.35778,-7.41776 -0.10522,0.0659 -0.0378,0.2177 0.15852,0.35709 0.4473,0.31755 4.17254,2.53762 5.92455,3.53076 5.18382,2.9385 14.33986,9.42135 20.27707,14.35702 2.00313,1.66521 2.20708,1.89154 2.25781,2.50559 0.0612,0.74023 -0.32258,1.14111 -1.61555,1.68757 -0.96093,0.40617 -1.27542,0.85582 -0.82963,1.18618 0.19209,0.14239 0.5434,0.25886 0.78069,0.25886 0.85376,0 3.28422,0.59802 4.46602,1.09884 2.60843,1.10545 4.19503,2.50835 7.80246,6.89892 3.22401,3.92398 4.99373,5.5614 9.06678,8.38902 8.71247,6.04842 9.60641,6.73959 11.93766,9.23018 0.99369,1.06153 1.87909,2.24468 2.46741,3.29721 1.09918,1.96635 1.39208,2.21347 1.95136,1.64661 0.37196,-0.37686 0.41783,-0.75101 0.73215,-5.94925 0.86141,-14.2458 0.80642,-33.07373 -0.129,-44.23756 -0.1479,-1.76571 -0.019,-1.95581 1.40028,-2.09421 1.75966,-0.17135 3.59558,1.08028 4.01764,2.73893 0.24634,0.96799 0.73182,10.25932 0.9401,17.98955 0.19766,7.33069 0.0114,16.33608 -0.4595,22.00915 -0.14787,1.79019 -0.3263,3.94347 -0.3959,4.78508 -0.11091,1.33828 -0.0879,1.54528 0.18337,1.65077 0.40685,0.15825 0.43888,0.10978 2.89303,-4.37996 1.14333,-2.09161 2.8783,-5.16837 3.8555,-6.83723 8.56693,-14.63046 16.93942,-22.43006 29.51048,-27.49137 1.97672,-0.79586 2.22022,-0.98255 3.63534,-2.78725 3.72715,-4.75325 8.67209,-7.2861 16.01392,-8.20254 2.85047,-0.35579 7.45718,-0.27012 10.59905,0.19712 2.37694,0.35352 2.85619,0.57058 2.92917,1.32678 0.0748,0.77745 -0.19615,0.95312 -1.99881,1.29534 -3.74797,0.71152 -6.63485,2.21508 -11.31751,5.89454 -2.64932,2.08177 -3.86585,2.91811 -5.31062,3.65105 -3.62251,1.83771 -6.15919,2.00417 -11.3886,0.74744 -0.88948,-0.21377 -1.05108,-0.1975 -2.01855,0.20329 -11.04641,4.5761 -20.28714,12.56307 -26.6876,23.06666 -1.60054,2.62667 -1.3404,3.05178 1.15334,1.88456 3.80027,-1.77877 7.55906,-2.07503 11.97529,-0.94384 1.54527,0.39579 8.45225,2.47766 9.33578,2.81393 0.58934,0.22431 0.82049,0.7944 0.48715,1.20151 -0.30897,0.3772 -1.08845,0.28431 -4.71516,-0.562 -3.85745,-0.9001 -6.61156,-1.16382 -9.1577,-0.8769 -6.78483,0.76464 -12.16103,4.79829 -17.5696,13.18203 -1.70147,2.63743 -2.37153,4.37801 -5.77873,15.01127 -3.6928,11.52461 -6.38104,17.30051 -9.49527,20.40123 -1.78997,1.78221 -4.08634,2.56875 -5.73779,1.96536 z m 3.44122,-0.89265 c 2.10468,-1.06596 4.23651,-3.90258 6.46096,-8.59678 1.60708,-3.3915 2.57181,-6.03498 5.78544,-15.85309 1.43976,-4.39877 2.86358,-8.54537 3.16403,-9.21467 1.86175,-4.14759 6.42238,-9.92558 9.96104,-12.61989 5.39434,-4.10722 11.26006,-4.90594 20.1665,-2.74602 1.45685,0.35327 2.75951,0.59923 2.89491,0.54657 0.38007,-0.1478 -0.0506,-0.56345 -0.73929,-0.71354 -0.32103,-0.0699 -1.49206,-0.41706 -2.60229,-0.77135 -6.14796,-1.96207 -7.63945,-2.30669 -10.45964,-2.41685 -2.57604,-0.1007 -4.6274,0.3328 -7.18623,1.51835 -1.97328,0.91424 -2.69761,0.87555 -2.78074,-0.14853 -0.0459,-0.56671 0.10124,-0.9859 0.71874,-2.04597 5.28589,-9.07471 13.37307,-16.78625 22.55755,-21.50984 4.91181,-2.52611 5.70117,-2.7175 8.303,-2.0132 1.18728,0.32138 2.01772,0.40845 3.89456,0.40821 2.2639,0 2.4624,-0.0315 3.89245,-0.60806 2.02446,-0.81651 3.89191,-1.98777 6.75075,-4.23398 4.99431,-3.92412 7.74256,-5.38381 11.4947,-6.10523 1.53849,-0.29582 2.17622,-0.54759 2.17622,-0.85915 0,-0.84044 -6.66993,-1.60342 -11.1484,-1.27526 -8.3492,0.6118 -13.99225,3.33951 -17.96329,8.68297 -1.14152,1.536 -0.96883,1.41786 -3.74583,2.56341 -13.88406,5.72738 -22.03036,14.05444 -32.38401,33.10266 -2.84653,5.23694 -3.06122,5.57352 -3.59556,5.63644 -0.81865,0.0965 -1.14035,-0.42351 -1.00671,-1.6267 1.21139,-10.90505 1.33774,-23.51365 0.40655,-40.55766 -0.20636,-3.77841 -0.29124,-4.47485 -0.62525,-5.13797 -0.75672,-1.50204 -2.35106,-2.35223 -3.61702,-1.92877 -0.77216,0.2583 -0.8919,0.62164 -0.65569,1.98968 0.77761,4.50427 0.92206,31.15696 0.23011,42.46195 -0.2222,3.63154 -0.44393,6.78528 -0.4926,7.0083 -0.13507,0.61983 -0.60311,0.98976 -1.24792,0.98662 -0.80436,-0.004 -0.90588,-0.0987 -1.69029,-1.57809 -1.87831,-3.5426 -4.46196,-5.90987 -12.38045,-11.34353 -6.1243,-4.20247 -7.62414,-5.50476 -10.92714,-9.48788 -5.09702,-6.14655 -6.94115,-7.4742 -11.40583,-8.21155 -1.95533,-0.32293 -2.43991,-0.55751 -2.43991,-1.18118 0,-0.46129 0.41143,-0.85227 1.46803,-1.39496 1.07789,-0.5536 1.48468,-0.94853 1.34825,-1.30887 -0.11136,-0.29417 -5.07028,-4.37269 -7.95436,-6.54217 -3.92948,-2.95588 -10.37394,-7.34086 -13.48746,-9.17724 -7.73103,-4.55986 -7.46721,-4.38573 -7.39742,-4.88285 0.14547,-1.03609 2.01286,-0.44536 8.31407,2.63001 9.15381,4.46761 16.39415,9.36425 21.11784,14.28202 1.11797,1.16391 2.12797,2.1162 2.24442,2.1162 0.29154,0 0.36839,-0.46199 0.54695,-3.28767 0.16705,-2.644 0.31339,-3.03614 1.1328,-3.03614 0.64929,0 0.86922,0.49608 1.19497,2.69551 l 0.25321,1.70966 3.27061,5.00471 c 3.67961,5.63059 3.91514,5.85279 4.12231,3.88873 0.19591,-1.85726 0.16946,-10.64357 -0.0389,-12.92661 -0.62102,-6.80463 -2.93833,-11.91687 -6.83898,-15.08762 -1.3777,-1.1199 -1.46738,-0.98043 -0.85947,1.3366 0.48533,1.84984 0.4732,2.3291 -0.068,2.68854 -0.67694,0.44958 -1.22492,0.18353 -2.09055,-1.01487 -2.53574,-3.51056 -5.33753,-5.97746 -9.10767,-8.01904 -2.61469,-1.41588 -3.53474,-1.41571 -2.97564,5.8e-4 0.65088,1.64879 0.24793,3.35628 -0.79202,3.35628 -0.41847,0 -0.78203,-0.29387 -1.85259,-1.49755 -2.61992,-2.94567 -5.66865,-4.99567 -8.83506,-5.94075 -1.81892,-0.54293 -1.99923,-0.47369 -1.86039,0.7145 0.0949,0.81234 0.0611,0.94471 -0.2898,1.13507 -0.44663,0.24227 -0.98264,0.12168 -1.68441,-0.37897 -0.98978,-0.70614 -3.44239,-1.82698 -4.9979,-2.28404 -3.33122,-0.97888 -8.40494,-1.05461 -14.06989,-0.21007 -9.82083,1.46416 -15.18245,1.16147 -20.324,-1.14741 -0.83325,-0.3742 -1.57643,-0.61695 -1.65152,-0.5395 -0.38334,0.39537 7.22098,6.55275 12.83391,10.3919 3.81509,2.60946 5.98811,3.94916 10.32336,6.36454 3.54506,1.97509 3.68323,2.07349 3.73946,2.66255 0.11269,1.18024 0.004,1.20882 -4.04579,1.06002 -2.4979,-0.0918 -3.62796,-0.0724 -3.62796,0.0623 0,0.20694 3.1966,3.12683 5.96384,5.44763 3.5278,2.95862 8.8633,6.86481 11.85139,8.67653 0.36174,0.2193 2.3023,0.95365 4.31231,1.63179 4.2673,1.43977 4.84736,1.73931 4.84736,2.50326 0,0.76295 -0.43285,0.92133 -2.51808,0.92133 -4.93402,0 -10.40041,-1.33631 -14.9797,-3.6619 -0.89362,-0.45386 -1.67809,-0.77008 -1.74327,-0.70274 -0.15954,0.16482 2.75494,2.98017 5.1213,4.94709 7.62591,6.33867 15.81621,9.97897 25.49694,11.33254 3.77318,0.52755 11.47811,0.43969 15.41422,-0.17576 3.37886,-0.52832 3.96332,-0.51272 4.96706,0.13246 1.15918,0.74514 7.80217,5.75804 9.98842,7.53746 2.75037,2.23856 6.95544,6.60372 8.32127,8.63805 1.32753,1.97729 2.44757,4.28888 2.91311,6.01231 0.49094,1.81723 0.43605,5.39049 -0.1124,7.32427 -2.27375,8.01661 -5.51848,15.48904 -9.45987,21.78576 -0.56091,0.89611 -1.01984,1.77616 -1.01984,1.95565 0,0.90707 2.15074,0.992 3.81216,0.15056 z m -8.14366,-53.91469 c -2.92696,-2.90048 -4.72648,-13.89136 -3.01982,-18.44394 0.60755,-1.62062 1.37092,-2.11527 1.91401,-1.24029 0.24876,0.40077 0.3719,1.12508 1.2254,7.20729 0.20813,1.4833 0.49305,3.45019 0.63315,4.37085 0.58338,3.83363 1.03373,7.53022 0.97778,8.02581 -0.0896,0.79387 -0.96926,0.83466 -1.73052,0.0803 z m 1.2255,-1.43952 c -0.19673,-1.19605 -1.37632,-9.50636 -1.96268,-13.82734 -0.57701,-4.25192 -0.84759,-4.86869 -1.57899,-3.59932 -1.33414,2.31539 -1.05338,9.95031 0.53155,14.45465 0.66813,1.89886 1.48848,3.39207 2.22235,4.04514 0.87191,0.77597 1.05167,0.53112 0.78777,-1.07313 z m 32.74172,-24.83036 c -0.20183,-0.11218 -0.73863,-0.55931 -1.19278,-0.99356 -0.45418,-0.43424 -2.60117,-2.23217 -4.77106,-3.99535 -8.45063,-6.86666 -10.79403,-10.08087 -11.12921,-15.26454 -0.11958,-1.85132 -0.34402,-2.38575 -0.80472,-1.91861 -0.20146,0.20429 -0.90515,3.55648 -1.4587,6.94987 -0.85463,5.23892 -1.06344,5.95182 -1.74333,5.95182 -1.21582,0 -6.14544,-5.18214 -8.58114,-9.02074 -2.5263,-3.98138 -4.64393,-10.00433 -5.01688,-14.26895 -0.1664,-1.90317 0.0324,-2.34522 1.5528,-3.45483 13.58097,-9.9107 28.96559,-12.64149 48.83002,-8.66737 3.92093,0.7844 8.6283,1.90582 10.83113,2.58021 0.45418,0.13902 1.65153,0.4783 2.66082,0.75392 2.07734,0.56729 3.34641,0.94249 8.16586,2.41438 1.86712,0.57025 4.09669,1.24946 4.95455,1.5094 0.8579,0.25992 2.05524,0.626 2.66082,0.8135 9.4899,2.93831 12.47728,3.15363 19.21185,1.38483 0.60561,-0.15904 1.44322,-0.26383 1.86145,-0.23287 1.29883,0.0962 1.13924,0.53058 -0.94792,2.58061 -4.6458,4.56308 -10.6596,8.12899 -17.0976,10.13805 -5.3574,1.67186 -7.95448,2.91033 -14.44194,6.88688 -1.67202,1.0249 -5.62665,3.02897 -7.29282,3.69578 -2.63196,1.05329 -7.36382,2.0018 -8.30785,1.66528 -0.85293,-0.30402 -0.88366,-0.72086 -0.50932,-6.91317 0.3648,-6.03518 0.37903,-6.51401 0.19769,-6.69763 -0.21768,-0.22061 -0.43124,0.25369 -1.57004,3.48706 -1.54305,4.38112 -4.31509,11.42882 -4.87849,12.40328 -0.36782,0.63599 -0.71376,0.91456 -1.78277,1.43522 -1.11945,0.54524 -1.4525,0.82353 -2.13424,1.78321 -1.09678,1.54398 -3.63275,3.91288 -4.95154,4.62531 -1.13826,0.61493 -1.70883,0.70591 -2.31478,0.369 z m 2.40295,-1.05287 c 1.47794,-0.96874 3.16219,-2.58327 4.33043,-4.15116 0.80755,-1.08383 1.1925,-1.4195 2.25564,-1.96704 1.47878,-0.76159 1.58627,-0.87415 2.28333,-2.39145 0.62972,-1.37075 3.52102,-8.93431 4.68142,-12.24631 0.93978,-2.6825 1.0654,-2.89909 1.68144,-2.89909 0.63839,0 0.70119,0.55042 0.46391,4.06517 -0.62918,9.31916 -0.6114,8.77684 -0.30331,9.25337 0.36896,0.5706 1.27363,0.58784 3.7715,0.072 3.78457,-0.78172 6.75286,-2.11163 13.48171,-6.04033 5.67374,-3.31265 7.77384,-4.30853 11.37717,-5.39513 5.09255,-1.53566 8.52948,-3.14855 12.64157,-5.93243 3.13079,-2.11954 7.54889,-6.03003 7.20577,-6.37782 -0.0729,-0.0736 -1.05877,0.0912 -2.191,0.36657 -5.79441,1.40947 -8.888,1.41126 -14.26153,0.008 -1.79296,-0.46815 -2.34507,-0.63167 -7.98238,-2.36404 -1.81667,-0.55829 -3.59204,-1.09723 -3.94527,-1.19768 -0.35313,-0.10046 -1.59189,-0.47629 -2.75258,-0.83526 -3.37002,-1.04228 -9.07179,-2.66229 -11.56064,-3.28465 -1.2616,-0.31545 -2.58279,-0.65186 -2.93606,-0.74753 -0.3531,-0.0957 -1.83961,-0.42317 -3.30302,-0.72778 -7.9289,-1.65046 -10.1814,-1.91484 -17.15755,-2.01393 -5.40023,-0.0768 -5.85494,-0.0563 -8.97084,0.4044 -8.04217,1.18886 -15.05524,3.86975 -21.81611,8.33964 -2.36595,1.56425 -3.40257,2.43543 -3.63492,3.05486 -0.3573,0.95253 0.6506,5.74769 1.94839,9.2697 1.74932,4.74739 4.30779,8.64273 8.186,12.46351 2.34068,2.30604 2.831,2.65921 3.18618,2.29505 0.14903,-0.15294 0.56723,-2.11153 1.00864,-4.72506 0.89536,-5.30117 1.34859,-7.44289 1.65413,-7.81603 0.26409,-0.32263 1.2029,-0.36739 1.38662,-0.0661 0.0701,0.11476 0.19124,1.14005 0.26934,2.27844 0.34253,4.99141 2.60977,8.14895 10.36002,14.42892 1.81667,1.47203 4.03664,3.33185 4.9332,4.1329 1.91961,1.71504 2.15769,1.76293 3.70889,0.7462 z m -50.71383,-39.27883 c -0.80299,-0.49626 -0.88703,-0.75245 -1.32623,-4.04354 -0.60548,-4.5372 -1.85266,-7.6019 -4.07235,-10.00697 -2.20474,-2.38889 -4.75393,-3.89961 -10.33304,-6.12369 -5.91176,-2.35665 -6.42754,-2.57964 -7.89063,-3.41132 -2.377,-1.35117 -5.22667,-3.40904 -6.83548,-4.93623 -0.65305,-0.61991 -0.77842,-1.30933 -0.27524,-1.51379 0.63901,-0.25963 6.0744,-0.49559 8.85401,-0.38436 12.34083,0.49388 13.96063,1.18112 19.04037,8.07865 3.70606,5.03226 7.29945,8.76465 11.2376,11.67233 2.38449,1.76056 7.8962,4.8935 9.58745,5.44967 1.16978,0.38469 1.60898,1.43148 0.82034,1.9552 -0.36586,0.24299 -2.71708,0.7969 -6.00373,1.41439 -0.55509,0.10428 -2.74336,0.5218 -4.86282,0.92782 -8.0282,1.5379 -7.11489,1.43186 -7.94024,0.92184 z m 3.99493,-0.65775 c 3.27955,-0.61911 5.7863,-1.10372 11.56067,-2.2349 3.46894,-0.67956 3.8919,-1.06021 2.07859,-1.87065 -4.40054,-1.9668 -8.75671,-4.65192 -11.80423,-7.2761 -3.70112,-3.18699 -5.3805,-5.01172 -8.64597,-9.39422 -5.78616,-7.76542 -7.31765,-8.3871 -20.71449,-8.40845 -6.0048,-0.009 -7.29524,0.0775 -7.05272,0.47509 0.21654,0.35516 3.66495,3.06197 5.23408,4.10852 1.96146,1.30821 3.64802,2.16653 6.36008,3.23678 1.18603,0.46803 3.06477,1.21078 4.17496,1.65055 9.4745,3.75297 12.80493,7.59675 13.94422,16.09349 0.4443,3.31359 0.44245,3.30632 0.95106,3.71183 0.60577,0.48298 0.90585,0.47593 3.91375,-0.092 z m 82.94327,-1.94615 c -3.07561,-0.2544 -6.59612,-0.89316 -7.27859,-1.32067 -0.80302,-0.50304 -1.12852,-1.53183 -0.81755,-2.58391 0.25994,-0.8791 0.46872,-1.00541 3.23331,-1.95519 2.69111,-0.92452 3.81033,-1.40081 6.40417,-2.72542 4.47362,-2.28445 7.16418,-4.33665 13.64125,-10.40448 3.39521,-3.18067 3.93743,-3.54214 4.75051,-3.16662 0.69174,0.31947 0.92224,1.16029 1.15358,4.20805 0.55995,7.37776 0.68362,7.97485 1.79578,8.67153 0.57832,0.36231 0.80271,0.39015 2.27525,0.28254 5.26514,-0.38466 4.91945,-0.38148 5.04619,-0.0466 0.21427,0.56636 -0.47165,1.01335 -5.13907,3.34803 -6.87126,3.43706 -9.61042,4.52946 -13.3373,5.31901 -2.18547,0.46299 -8.2945,0.65769 -11.72753,0.37376 z m 12.38642,-0.98515 c 3.58995,-0.92766 6.37192,-2.09263 12.56994,-5.26379 5.25558,-2.68896 5.23508,-2.652 1.296,-2.33722 -2.31724,0.18517 -3.19223,0.0906 -3.97625,-0.43017 -0.92663,-0.61539 -1.04015,-1.20533 -1.62621,-8.44991 -0.43146,-5.33283 -0.5732,-5.39162 -4.35437,-1.80634 -9.12587,8.65301 -12.6789,10.94657 -22.21785,14.34212 -0.80328,0.2859 -1.50478,0.65601 -1.60563,0.84706 -0.4629,0.87663 -0.0554,1.99045 0.91417,2.49864 0.43464,0.2278 3.49091,0.77808 6.06326,1.09168 0.35312,0.043 2.99568,0.0567 5.87212,0.0303 4.9177,-0.0453 5.3393,-0.0764 7.06482,-0.52228 z m -75.45726,-3.58657 c -7.11354,-1.21042 -14.88554,-6.3788 -20.74031,-13.79228 -9.5434,-12.08414 -13.6828,-27.524658 -10.2849,-38.364103 0.93054,-2.968492 2.40704,-5.606506 4.2421,-7.579271 0.78873,-0.847905 1.0009,-0.976472 1.61149,-0.976472 0.87239,0 1.08509,0.302768 1.61787,2.303107 2.24538,8.43024 7.27341,14.649293 17.02804,21.061621 1.53744,1.010628 3.8802,2.547628 5.20616,3.415508 7.44659,4.87421 13.2105,11.12523 15.10554,16.38217 1.90021,5.27125 1.71291,9.11563 -0.67268,13.80463 -0.94847,1.86428 -1.59483,2.39141 -3.79295,3.09311 -2.99616,0.95646 -6.20986,1.18127 -9.32036,0.65198 z m 6.65591,-0.46253 c 2.27577,-0.41511 4.43704,-1.25495 5.06191,-1.96703 0.16675,-0.18992 0.60075,-0.89732 0.96468,-1.57208 5.09265,-9.44206 -0.16447,-20.08888 -14.66456,-29.69952 -1.65525,-1.09707 -3.98368,-2.63447 -5.17427,-3.416429 -9.13405,-5.999028 -14.45778,-12.424986 -16.48244,-19.894976 -0.58287,-2.150533 -1.09744,-3.327573 -1.45471,-3.327573 -0.76778,0 -2.91258,2.695822 -4.2369,5.325407 -1.72856,3.432257 -2.36476,6.423465 -2.3684,11.135104 -0.006,7.133202 2.16675,14.787687 6.2468,22.012497 6.52415,11.55268 15.48861,19.21556 24.84736,21.23969 1.79753,0.38876 5.56424,0.47433 7.26053,0.16493 z m 25.37359,-0.27433 c -1.71678,-0.27109 -3.10073,-0.6268 -4.83347,-1.24242 -1.35118,-0.48005 -1.55977,-0.63538 -1.55977,-1.1615 0,-0.51838 0.4128,-0.88195 1.46802,-1.29298 0.45418,-0.17689 1.56898,-0.7174 2.47728,-1.20111 7.60616,-4.0505 13.66503,-11.15934 19.35932,-22.71421 1.27431,-2.58583 1.73549,-3.00232 4.86917,-4.39712 7.24262,-3.22367 15.19123,-5.088603 21.68819,-5.088603 3.13479,0 3.62091,1.24661 1.74284,4.469373 -1.75431,3.01048 -3.39345,4.98275 -6.1145,7.35729 -1.92982,1.68405 -1.91669,1.66189 -2.82011,4.76506 -1.03197,3.54472 -3.43253,7.46952 -6.18604,10.11398 -2.59183,2.48908 -3.72255,3.04873 -8.67213,4.2923 -3.91244,0.98299 -5.08767,1.45564 -7.50763,3.01932 -4.56911,2.95236 -8.79566,3.88831 -13.91117,3.08062 z m 8.28703,-0.91606 c 1.86079,-0.60385 3.93616,-1.62299 5.5073,-2.70441 1.84516,-1.27006 3.64907,-2.00539 6.83156,-2.78477 5.1197,-1.25385 6.48763,-1.88997 8.82793,-4.10522 3.21995,-3.04787 5.37767,-6.64537 6.64542,-11.07947 0.64293,-2.2488 0.7817,-2.45976 2.78454,-4.2333 3.59928,-3.1872 7.30235,-8.44031 6.95076,-9.86023 -0.23692,-0.957215 -0.90366,-1.094393 -4.21365,-0.86711 -7.17784,0.492888 -14.5865,2.47576 -20.92396,5.60013 -1.90729,0.94028 -2.20316,1.2893 -3.7758,4.45418 -3.39499,6.83226 -6.5987,11.53683 -10.64317,15.62918 -3.41381,3.45431 -6.46405,5.61156 -10.4644,7.40089 -2.00982,0.89896 -2.1055,1.04566 -1.00025,1.53318 2.70409,1.19271 5.38109,1.66603 8.97787,1.58737 2.586,-0.0564 3.122,-0.12454 4.49585,-0.57042 z m -21.91551,-1.87919 c -0.34856,-0.35333 -0.34856,-8.2e-4 0,-3.65737 0.28446,-2.97932 0.26334,-4.19658 -0.12561,-7.30301 -0.73433,-5.86191 -3.26965,-10.6887 -7.90905,-15.05735 -1.33453,-1.25664 -2.3833,-2.06198 -5.64967,-4.33825 -0.79479,-0.55389 -1.0456,-0.8511 -1.18012,-1.39861 -0.25731,-1.04709 0.19916,-1.530554 2.5807,-2.73411 4.82467,-2.438086 9.61073,-2.814674 15.16787,-1.193438 2.6411,0.770501 3.92416,1.283231 7.74565,3.095148 5.4052,2.56283 8.91936,3.62534 13.74084,4.15455 3.15436,0.3462 3.31711,0.37923 3.67908,0.7461 0.49626,0.50297 0.33159,1.06978 -1.25007,4.30233 -6.69837,13.69033 -13.2913,20.10726 -23.84322,23.2066 -1.85035,0.54349 -2.55387,0.58571 -2.95669,0.17739 z m 3.74871,-0.94356 c 7.85568,-2.41241 13.84135,-7.54727 19.26498,-16.52663 1.73854,-2.87831 4.77389,-8.8995 4.77389,-9.46992 0,-0.55215 -0.18788,-0.62299 -2.2626,-0.85338 -2.95817,-0.32849 -4.38426,-0.57345 -6.58608,-1.13125 -3.16716,-0.80234 -5.22853,-1.5895 -9.22636,-3.52324 -2.6271,-1.270716 -5.77955,-2.485403 -8.07411,-3.111098 -1.65695,-0.451805 -2.14672,-0.500878 -5.04634,-0.505483 -3.61472,-0.0068 -5.06859,0.308199 -8.20336,1.771292 -3.47096,1.619989 -3.6407,2.312879 -0.98945,4.038289 10.04456,6.53687 14.16865,15.19437 13.01906,27.33036 -0.3067,3.2386 -0.46271,3.14588 3.33037,1.98106 z m -63.03324,-20.65837 c -7.15064,-1.00163 -12.59292,-6.7406 -13.50701,-14.243416 -0.50688,-4.160265 0.0595,-8.007717 2.62023,-17.800792 1.67257,-6.396429 1.74354,-6.586784 2.48257,-6.660025 0.50955,-0.0505 0.66333,0.05884 1.30761,0.929964 1.17617,1.590296 2.66963,4.477925 4.06979,7.869001 2.88949,6.998177 3.87322,8.985083 5.5394,11.188482 1.14504,1.514221 1.39424,2.122989 1.81546,4.43506 0.1864,1.022964 0.67243,3.659436 1.0801,5.858826 1.45028,7.82412 1.3871,7.35443 1.05801,7.86352 -0.19108,0.29561 -0.53702,0.49418 -0.99407,0.57073 -0.74754,0.12519 -4.55362,0.11731 -5.47209,-0.0114 z m 5.7903,-0.61651 c 0.43824,-0.23773 0.46136,-0.93861 0.0895,-2.71522 -0.27301,-1.30437 -0.82187,-4.25373 -1.65703,-8.904058 -0.6925,-3.855969 -0.8916,-4.405929 -2.32003,-6.408843 -1.30107,-1.824315 -2.66752,-4.368078 -3.62447,-6.74719 -2.69026,-6.688367 -3.82533,-9.115389 -5.29692,-11.325787 -1.44694,-2.173381 -1.57739,-2.12812 -2.33319,0.809461 -0.24409,0.948753 -0.81379,3.106012 -1.26598,4.793913 -1.9216,7.173107 -2.50336,10.509447 -2.50137,14.345446 0.002,4.903861 1.41897,8.639698 4.4346,11.696278 2.76186,2.79937 5.63324,4.19654 9.69384,4.71688 1.0372,0.1329 4.3926,-0.0501 4.78102,-0.26089 z m 85.79072,-7.72667 c -0.62598,-0.63448 -0.13431,-1.3648 1.31097,-1.94669 7.04345,-2.836123 13.37827,-7.686453 15.42948,-11.813745 1.47865,-2.975179 0.46057,-6.400051 -2.39029,-8.041311 -1.74409,-1.004089 -2.94377,-1.232044 -6.56441,-1.247315 -1.86718,-0.0082 -3.49803,-0.07902 -3.62419,-0.158137 -0.38754,-0.24296 -0.25877,-1.0013 0.2369,-1.396616 1.61263,-1.285719 9.02913,-1.720719 12.32464,-0.72288 4.54486,1.376141 6.84384,4.240523 6.84384,8.526937 0,3.422504 -2.07071,6.616264 -6.01693,9.280258 -2.21269,1.493735 -4.74701,2.73491 -11.4158,5.590949 -1.26161,0.54029 -2.86953,1.26101 -3.57316,1.60158 -1.40661,0.68083 -2.12187,0.77214 -2.56109,0.32696 z m 2.00539,-0.63581 c 0.30296,-0.18021 1.87178,-0.88782 3.48658,-1.57244 4.95263,-2.099735 6.71925,-2.899249 8.53289,-3.861718 7.34428,-3.897442 10.19683,-8.243265 8.7062,-13.263597 -1.28346,-4.322479 -6.36073,-6.686246 -12.99053,-6.047831 -3.16122,0.304405 -5.69937,1.106645 -5.34419,1.689147 0.0489,0.07976 1.51238,0.142688 3.25282,0.139826 5.45224,-0.0092 8.20517,1.164007 9.62909,4.102952 0.77483,1.599189 0.74382,4.072591 -0.0732,5.824224 -1.98819,4.263424 -7.80483,8.844999 -15.07025,11.870307 -1.72445,0.71808 -2.03404,0.97526 -1.68592,1.40043 0.25767,0.3148 0.68436,0.23773 1.55634,-0.2813 z m -8.594,0.0601 c -0.3701,-0.37492 0.10491,-1.57868 2.41694,-6.130176 3.14596,-6.192593 4.10255,-7.831487 5.71041,-9.783672 2.39736,-2.910716 4.83241,-4.248179 7.782,-4.274229 5.81623,-0.05138 7.57784,3.185764 4.03672,7.417843 -1.85909,2.221896 -5.75671,5.025761 -12.63654,9.090497 -1.5139,0.894451 -3.52072,2.116197 -4.45957,2.714997 -1.57366,1.0037 -2.50162,1.31782 -2.84996,0.96474 z m 1.89006,-1.00252 c 0.63345,-0.41499 2.97905,-1.849273 5.21238,-3.187284 9.09064,-5.446269 12.32626,-8.017389 13.80066,-10.966498 1.1537,-2.307651 -0.11432,-3.940416 -3.46869,-4.466797 -4.81022,-0.754823 -8.54093,2.190658 -12.64354,9.98238 -2.4133,4.583391 -4.56119,9.031699 -4.44946,9.214929 0.17166,0.28155 0.3263,0.22393 1.54865,-0.57673 z m -7.42576,-0.45575 c -1.30611,-0.63495 -3.24392,-1.54512 -6.51431,-3.059753 -2.97545,-1.377991 -3.30307,-1.619899 -3.30307,-2.438544 0,-0.574349 0.25689,-0.827749 1.49473,-1.47519 2.93122,-1.532984 7.28004,-5.495663 9.49509,-8.652017 2.64218,-3.764942 3.84908,-7.557019 3.24516,-10.196338 -0.70088,-3.063239 -2.74162,-4.908295 -7.00594,-6.334171 -1.76108,-0.588857 -2.15562,-0.84147 -1.99149,-1.275027 0.3761,-0.993648 4.98661,-0.484135 7.60224,0.840147 6.08828,3.082467 7.12397,12.407343 2.8246,25.43142 -0.60303,1.826675 -2.20613,5.635631 -2.8182,6.695803 -0.44938,0.77843 -0.54011,0.83952 -1.29726,0.87333 -0.54157,0.0241 -1.12108,-0.11292 -1.73155,-0.40966 z m 2.19614,-0.20525 c 1.33754,-1.355723 4.17489,-9.406114 5.26982,-14.951981 0.62522,-3.166911 0.62008,-8.754989 -0.0115,-10.787682 -1.48346,-4.786073 -4.52536,-7.157746 -9.47456,-7.386909 -2.28192,-0.105661 -2.35971,0.04133 -0.36706,0.693456 4.89438,1.601748 7.19421,4.06138 7.389,7.902412 0.23616,4.658982 -3.32464,10.728806 -9.09506,15.502991 -1.28333,1.061773 -3.21496,2.373629 -4.37276,2.969734 -1.37334,0.70707 -1.19412,1.164406 0.82101,2.095324 1.64416,0.759506 3.48445,1.628395 6.4506,3.045664 2.70799,1.293911 2.95188,1.359911 3.38887,0.916991 z m -44.6734,-4.031195 c -0.62611,-0.321114 -0.91523,-0.983735 -0.91845,-2.10502 -0.005,-1.894409 0.579,-2.315504 7.70446,-5.551721 7.30299,-3.316868 12.38931,-4.850251 18.55739,-5.594547 2.45785,-0.296575 3.07507,1.803787 0.86434,2.941393 -0.33687,0.173411 -2.34681,1.24853 -4.46628,2.38915 -7.67448,4.130159 -11.44921,5.922425 -14.98357,7.114431 -2.98485,1.006671 -5.72881,1.334078 -6.75789,0.806314 z m 4.67572,-0.715663 c 3.34532,-0.831924 8.6084,-3.187369 15.2307,-6.816298 0.90836,-0.497767 2.72503,-1.477122 4.03709,-2.176357 2.72404,-1.451717 3.02781,-1.675137 3.02781,-2.227048 0,-0.961569 -0.73047,-1.045186 -4.07615,-0.466602 -5.29282,0.915296 -8.86568,2.051274 -14.73288,4.684175 -4.74858,2.130912 -7.88919,3.785894 -8.25332,4.34916 -0.76765,1.187507 -0.42358,2.704978 0.68611,3.025976 0.76409,0.22103 2.23124,0.08692 4.08064,-0.373006 z m 13.15456,-2.217544 c -0.3414,-0.138875 -0.41334,-0.289975 -0.36706,-0.772881 0.0678,-0.707577 0.0762,-0.712358 3.36068,-1.91728 6.57711,-2.412896 12.49479,-6.83148 16.76621,-12.518892 1.97192,-2.625589 2.49095,-2.324879 2.35208,1.362662 -0.16825,4.466611 -1.44877,7.47217 -4.33901,10.184417 -1.89125,1.774811 -4.93243,3.219425 -7.71445,3.664529 -1.4747,0.235928 -9.47683,0.233897 -10.05852,-0.002 z m 9.0493,-0.359448 c 6.05345,-0.649498 10.79301,-4.632802 12.18745,-10.242751 0.39544,-1.591017 0.67172,-4.558806 0.4919,-5.284872 -0.16221,-0.65562 -0.42052,-0.476418 -1.60016,1.110707 -4.246,5.712607 -11.11709,10.688136 -17.86881,12.939308 -1.84421,0.614885 -2.48424,0.971492 -2.22256,1.238346 0.32066,0.326841 6.63369,0.494467 9.01218,0.239253 z m -34.14992,-1.750674 c -0.52085,-0.527939 -0.62391,-0.767827 -0.62391,-1.452409 0,-0.928907 0.19036,-1.253389 1.09199,-1.861485 l 0.63323,-0.427073 0.009,-2.602687 c 0.008,-2.410614 0.0416,-2.657585 0.45072,-3.346667 0.96096,-1.618613 2.22561,-2.649255 4.0175,-3.274124 2.23754,-0.780274 2.59254,-0.462745 2.76047,2.468959 0.1034,1.807309 0.16614,2.111821 0.44534,2.165916 0.17866,0.03477 2.55542,-1.117919 5.28169,-2.561208 2.7262,-1.443278 5.19637,-2.672713 5.48914,-2.732068 0.41377,-0.08388 0.63733,-0.0017 1.00333,0.369378 0.44295,0.448966 0.47091,0.588087 0.47091,2.342783 0,1.77483 -0.0227,1.892755 -0.50463,2.427373 -0.35574,0.396199 -3.09345,1.823185 -9.28312,4.838792 -9.98605,4.865208 -10.0249,4.877812 -11.24169,3.644501 z m 7.1467,-2.231935 c 2.60858,-1.288938 4.76536,-2.343532 4.7929,-2.343532 0.42093,0 8.04723,-4.015446 8.33806,-4.390222 0.77268,-0.995609 0.38208,-4.165524 -0.51325,-4.165524 -0.18599,0 -1.07154,0.389229 -1.96796,0.86495 -7.90711,4.196316 -8.20784,4.342895 -8.91024,4.342895 -0.91842,0 -1.06898,-0.376333 -1.06898,-2.67183 0,-1.087954 -0.0807,-1.799463 -0.2202,-1.940837 -0.9421,-0.954871 -4.51498,1.083165 -5.62029,3.205903 -0.4562,0.876154 -0.4912,1.110244 -0.50236,3.3597 -0.0147,3.001127 0.0397,2.759104 -0.71562,3.171417 -1.18256,0.645509 -1.27901,1.715252 -0.23495,2.605721 0.85541,0.729567 1.29356,0.594691 6.62287,-2.038641 z m -33.64835,0.06713 c -0.78864,-1.493607 -0.4643,-9.101719 0.56588,-13.273793 1.99725,-8.088599 6.30806,-13.421107 10.03526,-12.41372 1.56412,0.422753 2.18425,1.402532 2.60737,4.119444 0.446,2.863872 0.22771,3.598041 -1.30383,4.384654 -6.12765,3.147284 -9.47375,8.079433 -10.08529,14.865775 -0.11061,1.227555 -0.28546,2.336556 -0.38855,2.464427 -0.30319,0.376139 -1.2035,0.283782 -1.43084,-0.146787 z m 1.28838,-1.275827 c 0,-6.903903 3.70592,-12.908536 9.95096,-16.123346 1.84257,-0.948509 1.92456,-1.141588 1.55205,-3.654795 -0.32994,-2.225879 -0.69369,-3.183021 -1.41037,-3.710949 -1.24627,-0.918056 -2.51613,-0.728773 -4.30541,0.64176 -3.55896,2.726048 -5.98439,8.260267 -6.82581,15.574704 -0.37042,3.220102 -0.26792,7.3732 0.19983,8.096775 0.44733,0.691976 0.83874,0.307358 0.83875,-0.824149 z m 19.48507,-3.37708 c -0.52425,-0.213169 -1.97719,-3.256938 -2.65857,-5.569553 -1.39655,-4.739906 -1.67977,-9.760054 -0.766,-13.577599 1.1938,-4.987419 4.35227,-8.912051 6.82998,-8.486753 0.3793,0.06508 0.94658,0.167724 1.26062,0.228022 0.51253,0.09843 0.72867,-0.03168 2.11028,-1.271576 3.04343,-2.730925 5.12896,-3.973929 8.24503,-4.914098 1.62535,-0.490393 1.94491,-0.523397 5.03844,-0.520381 3.84081,0.004 5.52838,0.338228 9.3524,1.853621 3.48657,1.381686 5.84537,2.669886 9.97741,5.448876 5.59399,3.762209 7.52961,7.306503 6.82225,12.492108 -0.48919,3.586127 -1.6844,4.15861 -3.20324,1.534311 -3.96355,-6.848355 -9.34354,-11.033347 -16.3427,-12.712647 -2.85425,-0.684817 -8.91426,-0.645951 -12.2947,0.07887 -3.4081,0.730733 -7.75786,2.183763 -9.63155,3.217404 -1.31219,0.723883 -1.38227,0.957855 -1.35539,4.524941 0.0268,3.533498 0.47434,6.155893 1.60622,9.407996 0.63562,1.826252 0.74989,2.357779 0.69285,3.22282 -0.0465,0.705103 -4.66331,5.343926 -5.20336,5.228142 -0.0302,-0.0068 -0.24623,-0.08956 -0.47997,-0.184542 z m 2.72513,-2.329358 c 1.08352,-1.082224 2.11985,-2.249652 2.30295,-2.59427 l 0.33292,-0.626579 -0.77078,-2.381081 c -1.25936,-3.89034 -1.52783,-5.443908 -1.63529,-9.463252 -0.11943,-4.46775 -0.12328,-4.457585 2.08201,-5.505054 0.85552,-0.406356 2.66939,-1.110349 4.03086,-1.564438 14.22106,-4.743213 26.26563,-1.26548 33.24336,9.598625 2.03675,3.171155 2.14359,3.298548 2.55484,3.046934 0.63891,-0.390876 0.86805,-1.504728 0.87635,-4.259725 l 0.006,-2.603923 -0.76652,-1.580951 c -1.31877,-2.720113 -3.0761,-4.363896 -7.9389,-7.425862 -6.77894,-4.26848 -11.73597,-6.011658 -17.07675,-6.005125 -4.94928,0.0064 -8.43207,1.453937 -12.63269,5.251794 -1.85472,1.676876 -1.88797,1.689082 -3.80196,1.39608 -0.76038,-0.116401 -1.05965,-0.07359 -1.65153,0.2362 -1.98116,1.037028 -4.01551,4.294732 -4.90143,7.848859 -0.58862,2.36149 -0.57056,7.475402 0.0362,10.22969 0.52109,2.365713 1.47355,5.203508 2.31467,6.896433 0.57133,1.149905 0.80275,1.418064 1.25879,1.458638 0.0908,0.0079 1.05158,-0.870777 2.13511,-1.953002 z m 29.95046,-0.759411 c -0.42051,-0.171997 -0.26293,-1.125053 0.25428,-1.53735 1.50701,-1.201512 3.24524,-0.796509 2.70509,0.630268 -0.25502,0.673777 -2.12689,1.247526 -2.95933,0.907082 z m 1.79648,-0.624578 c 0.47701,-0.246671 0.72668,-0.502275 0.72668,-0.743977 0,-0.459219 -0.52513,-0.485083 -1.33948,-0.06597 -0.94032,0.48391 -1.08117,0.639704 -0.84233,0.931399 0.28368,0.346643 0.60111,0.320156 1.45513,-0.121442 z m 5.13074,0.482052 c -0.25236,-0.148044 -1.06217,-0.943191 -1.79972,-1.76696 -1.49768,-1.672766 -3.12238,-2.929857 -4.73719,-3.665316 -2.10673,-0.959517 -2.3774,-1.685507 -1.25706,-3.37173 0.88443,-1.331134 1.56622,-1.36212 2.86557,-0.130239 0.571,0.541368 1.65506,1.216628 3.02478,1.884099 3.09272,1.507143 4.46642,3.137462 4.47087,5.306029 0.002,1.51699 -1.36748,2.448128 -2.56725,1.74411 z m 1.75167,-0.748808 c 0.58251,-0.590471 0.56755,-1.058774 -0.078,-2.44214 -0.69004,-1.47848 -1.6177,-2.365259 -3.31735,-3.17125 -2.4391,-1.156625 -2.8355,-1.394187 -3.71575,-2.226789 -0.47511,-0.449362 -0.94655,-0.817015 -1.04771,-0.817015 -0.25693,0 -1.02844,0.873315 -1.41595,1.602655 -0.31311,0.589166 -0.31198,0.624472 0.0264,1.005143 0.19391,0.21698 0.94346,0.671394 1.66605,1.009786 1.64245,0.769153 2.97,1.75964 4.38609,3.272464 0.60553,0.646924 1.32175,1.411903 1.59152,1.699952 0.61121,0.652606 1.30172,0.676979 1.90337,0.06718 z m 26.50777,0.08453 c -0.32292,-0.327458 -0.36743,-0.622526 -0.37005,-2.46443 -0.006,-3.533977 -0.7414,-5.929194 -2.79522,-9.096564 -5.24409,-8.087326 -19.28156,-16.230371 -30.09335,-17.456953 -0.93417,-0.10597 -1.8388,-0.2367 -2.01026,-0.290464 -0.38008,-0.11919 -0.58034,-0.689949 -0.4208,-1.19943 0.22748,-0.726064 3.90345,-2.294231 7.43038,-3.169687 2.58135,-0.640748 7.96045,-0.647417 10.3679,-0.01298 6.39382,1.685291 10.49361,5.739359 12.3955,12.257294 0.66366,2.274407 0.79629,2.447531 2.68676,3.50663 2.86938,1.607527 4.79682,3.882783 5.49605,6.487793 0.58639,2.184832 0.45508,9.392086 -0.19428,10.664989 -0.53643,1.051335 -1.82415,1.451061 -2.49242,0.773667 z m 1.73221,-0.732249 c 0.62891,-0.665389 0.81189,-2.030517 0.82694,-6.170664 0.0115,-3.313923 -0.15919,-4.328255 -1.02553,-6.074993 -0.83931,-1.69226 -2.29663,-3.108847 -4.59657,-4.468219 -2.10385,-1.243465 -2.20742,-1.366279 -2.72919,-3.236137 -1.12666,-4.037085 -2.823,-6.862739 -5.4454,-9.070519 -5.69141,-4.791562 -14.54298,-5.331754 -22.66457,-1.383155 -1.96052,0.95318 -1.78595,1.433813 0.59634,1.64166 5.07854,0.44308 12.92916,3.309612 18.62552,6.80084 9.90519,6.070705 14.96852,12.995662 14.8353,20.289773 -0.0189,0.979667 0.0264,1.879414 0.10044,1.999437 0.23731,0.389238 0.94781,0.231426 1.47662,-0.328032 z m -41.43211,-0.537844 c -0.87981,-0.985382 0.27502,-3.007766 1.71775,-3.007766 1.48195,0 1.87748,1.955541 0.6013,2.973003 -0.61508,0.490384 -1.89508,0.509576 -2.31905,0.03477 z m 1.62821,-0.254047 c 1.02509,-0.473404 1.24923,-1.893615 0.33538,-2.126053 -1.28314,-0.326422 -2.49575,1.738606 -1.30616,2.224363 0.36291,0.148159 0.45779,0.138529 0.97062,-0.09833 z m -12.83068,-1.00197 c -0.28517,-0.753209 0.21509,-2.996484 1.03057,-4.620998 0.60834,-1.211952 2.05737,-2.61108 3.31304,-3.198965 1.07463,-0.503108 1.28404,-0.534575 3.5582,-0.534575 2.30473,0 2.43829,0.02099 2.89017,0.450911 0.60938,0.579934 0.63654,1.473141 0.0608,2.003897 -0.22711,0.209371 -0.99093,0.610768 -1.69738,0.891951 -2.70742,1.077531 -4.79707,2.369393 -6.78219,4.192831 -1.25597,1.15364 -2.13133,1.454221 -2.37335,0.814948 z m 1.95915,-1.156282 c 1.95962,-1.847787 4.65719,-3.490726 7.26341,-4.423779 1.63352,-0.584805 2.02076,-1.522348 0.89212,-2.159788 -0.72963,-0.412078 -3.89806,-0.274027 -5.17839,0.225614 -1.36984,0.534606 -2.94659,2.074446 -3.6152,3.530563 -0.67069,1.460675 -1.11148,3.346588 -0.85536,3.659416 0.27707,0.338343 0.21636,0.372159 1.49342,-0.832026 z m -10.11301,-0.416172 c -1.96968,-1.217178 -2.86791,-7.287917 -1.6166,-10.925877 0.7532,-2.189812 1.24596,-2.629788 4.29876,-3.838358 7.72057,-3.056489 13.22061,-2.059825 21.63296,3.920133 6.05771,4.306161 6.10674,4.350742 5.86381,5.331679 -0.19048,0.769259 -1.75641,1.113244 -3.0259,0.664692 -0.60292,-0.213043 -0.65024,-0.314724 -0.89954,-1.934353 -0.17089,-1.110154 -0.61435,-1.294439 -1.50636,-0.626013 -0.75467,0.565556 -1.52859,0.512175 -2.92378,-0.201661 -0.63141,-0.323056 -1.98796,-0.870924 -3.0145,-1.217487 -6.46944,-2.184032 -11.31467,0.130043 -14.89142,7.112144 -1.03542,2.021218 -2.43236,2.632818 -3.91743,1.71511 z m 2.49265,-0.596054 c 0.23743,-0.226075 0.77017,-1.040847 1.1839,-1.810583 2.26513,-4.214359 5.13275,-6.773064 8.35482,-7.454743 2.73045,-0.57768 6.60001,0.09179 9.85673,1.70535 1.72046,0.852396 1.85707,0.8656 2.66961,0.257987 1.19882,-0.896481 2.01876,-0.501763 2.15678,1.038243 0.12146,1.358158 0.41359,1.658674 1.61101,1.658674 1.00887,0 1.45131,-0.281291 1.33959,-0.851602 -0.094,-0.478801 -7.00403,-5.450506 -9.97023,-7.173265 -5.28089,-3.067188 -10.04236,-3.505099 -15.78122,-1.451377 -3.43655,1.229815 -4.22126,1.818525 -4.96249,3.722945 -1.19857,3.079564 -0.91379,7.1715 0.68214,9.801652 0.71947,1.18573 1.94766,1.424854 2.85936,0.556727 z"
       id="rose-path" /></g></svg>
