<?xml version="1.0" encoding="UTF-8" standalone="no"?>
<!-- Created with Inkscape (http://www.inkscape.org/) -->

<svg
   width="100%"
   viewBox="0 0 210 297"
   version="1.1"
   id="svg-rose-filled"
   xmlns="http://www.w3.org/2000/svg"
   xmlns:svg="http://www.w3.org/2000/svg">
  <defs
     id="defs1" />
  <g
     id="layer1">
    <path
       style="fill:#000000;stroke-width:0.184317"
       d="m 98.715685,257.19072 c -0.815676,-0.15392 -1.270017,-0.63615 -1.101017,-1.16863 0.06259,-0.19725 0.466949,-0.90661 0.898545,-1.57637 4.546177,-7.05478 9.327747,-18.46271 10.079337,-24.04741 0.817,-6.07085 -3.22457,-12.56446 -12.310236,-19.77887 -3.495258,-2.77539 -9.247422,-6.9597 -9.945504,-7.23468 -0.59363,-0.23384 -0.984806,-0.21679 -3.642933,0.15885 -14.519329,2.05185 -26.699732,-0.5567 -37.914812,-8.11975 -3.699468,-2.49479 -9.431081,-7.5775 -9.117355,-8.08513 0.198417,-0.32104 0.569576,-0.21782 2.529198,0.70332 2.44008,1.14703 2.745124,1.27417 4.293042,1.78924 4.334748,1.44245 11.248128,2.22812 12.276764,1.39517 0.907742,-0.73504 0.04442,-1.19153 -5.80298,-3.06833 -1.320945,-0.42396 -2.74636,-1.03833 -3.594181,-1.54911 -3.733309,-2.24914 -10.119395,-7.06019 -14.583736,-10.98684 -2.445942,-2.15134 -2.813856,-2.55146 -2.731337,-2.97033 0.07708,-0.39115 0.0823,-0.39135 4.393287,-0.16411 2.530008,0.13337 2.888615,0.11631 3.107897,-0.1479 0.577133,-0.69541 0.151932,-1.09482 -2.962324,-2.78264 -8.345043,-4.52273 -17.739292,-11.00669 -22.9578961,-15.84564 -1.798583,-1.66774 -1.446574,-2.22128 0.7415271,-1.16605 4.919087,2.37228 10.551629,2.74656 20.132371,1.33777 8.889773,-1.30717 14.524606,-0.68362 19.263544,2.13173 1.734495,1.03044 2.11723,0.96124 2.11723,-0.38285 0,-1.01183 0.0018,-1.01385 0.60725,-1.07211 1.363448,-0.13106 5.149927,1.52873 7.381822,3.23581 0.744529,0.56944 2.067464,1.80853 2.939892,2.75354 1.653821,1.79142 2.037643,1.99107 2.515724,1.30853 0.385222,-0.54997 0.361446,-1.41776 -0.06993,-2.55306 -0.579953,-1.5263 -0.136505,-1.90488 1.487604,-1.27001 3.711019,1.45068 8.032478,4.74911 10.342615,7.8942 1.164072,1.58481 1.642891,2.05234 2.101932,2.05234 0.739738,0 0.852816,-0.56674 0.43755,-2.19319 -0.414196,-1.62221 -0.473215,-2.5156 -0.178252,-2.69789 0.516087,-0.31896 3.459279,2.49767 4.825565,4.61804 2.990359,4.64084 4.111725,11.11077 3.669087,21.16953 -0.145038,3.29571 -0.231593,4.08568 -0.474247,4.32834 -0.220498,0.2205 -0.378882,0.24833 -0.615932,0.10823 -0.287516,-0.16995 -6.088469,-8.64436 -6.785334,-9.91246 -0.158015,-0.28757 -0.360119,-1.22871 -0.449126,-2.09142 -0.212775,-2.0623 -0.813353,-2.97047 -1.453947,-2.19861 -0.116802,0.14072 -0.29629,1.43826 -0.398899,2.88339 -0.266356,3.75173 -0.481509,3.98769 -2.065622,2.26548 -3.666009,-3.98558 -7.450663,-6.94254 -13.887952,-10.85078 -4.584055,-2.78309 -14.708476,-7.64046 -15.925336,-7.64046 -0.226987,0 -0.3634,0.12447 -0.3634,0.33158 0,0.30915 4.045039,2.87862 6.433271,4.0865 2.463304,1.24586 12.182891,7.87207 16.880836,11.5083 4.341383,3.36028 5.623658,4.49695 5.623658,4.98515 0,0.47244 -0.57435,0.96715 -1.594563,1.37346 -0.319458,0.12723 -0.775643,0.43905 -1.013744,0.69296 l -0.432923,0.46162 0.435135,0.35298 c 0.239317,0.19414 0.612559,0.35406 0.829427,0.3554 1.099248,0.007 3.948549,0.77419 5.238104,1.41083 2.419086,1.19433 3.328193,2.02519 7.125528,6.51237 4.027012,4.75857 4.881248,5.47233 13.650718,11.40592 5.032143,3.40485 8.371213,6.51232 9.842853,9.16018 1.00037,1.79988 1.25671,2.10489 1.76912,2.10489 0.80002,0 1.06494,-0.59249 1.21673,-2.72132 1.03715,-14.54517 1.10304,-38.38486 0.12944,-46.81812 -0.25841,-2.23821 -0.15779,-2.44219 1.26658,-2.56789 1.81146,-0.15985 3.61386,1.39689 3.82739,3.30575 0.11628,1.03948 0.33347,4.93001 0.67086,12.01697 0.42717,8.97254 0.0628,24.57858 -0.73418,31.43941 -0.12621,1.08675 -0.10498,1.47107 0.0993,1.79709 0.5466,0.87217 0.76877,0.60148 3.3848,-4.12372 11.07747,-20.00873 18.5605,-27.74252 32.53194,-33.6221 3.08564,-1.29852 3.18182,-1.36559 4.76782,-3.32456 3.85106,-4.75672 8.7816,-7.1748 16.36406,-8.0254 2.98015,-0.33432 6.05468,-0.26875 9.63941,0.20559 2.44975,0.32415 3.11689,0.55861 3.19803,1.12388 0.0826,0.57538 -0.30521,0.78327 -2.01826,1.082 -3.66916,0.63985 -6.36291,2.0458 -11.70195,6.10759 -3.51728,2.67585 -5.92749,4.03396 -8.17634,4.60726 -1.58788,0.40478 -5.05741,0.26238 -6.91129,-0.28368 -1.82167,-0.53656 -2.28023,-0.48818 -4.49043,0.47368 -6.97666,3.0362 -12.82483,7.08579 -18.04211,12.4933 -3.11411,3.22767 -6.66412,7.92782 -8.27232,10.95244 -0.9671,1.81884 -0.3083,2.29356 1.82101,1.31209 2.54512,-1.17313 3.88536,-1.50177 6.52891,-1.60095 2.90913,-0.10915 4.59432,0.18559 9.27568,1.62225 1.67267,0.51333 3.61388,1.08874 4.31379,1.27872 1.37561,0.37335 1.88315,0.7249 1.70749,1.18265 -0.12863,0.33522 -0.67933,0.3709 -1.59889,0.1036 -1.66897,-0.48516 -5.62869,-1.28173 -7.37146,-1.48291 -8.88878,-1.02614 -15.65723,2.77776 -22.15748,12.45263 -2.17741,3.24081 -2.58286,4.26005 -6.56208,16.49637 -5.11009,15.7138 -9.43026,22.11592 -14.303398,21.19636 z m -5.149079,-54.55227 c -0.813261,-0.90017 -1.5739,-2.39511 -2.206698,-4.33691 -1.781184,-5.46568 -1.653231,-13.82188 0.22706,-14.82817 0.672425,-0.35988 0.846052,0.20046 1.482056,4.7829 0.189939,1.36855 0.73666,5.20017 1.214944,8.51468 0.478265,3.31452 0.8201,6.1553 0.759644,6.31284 -0.189957,0.49506 -0.791181,0.31378 -1.477006,-0.44534 z M 127.8227,176.79309 c -0.20274,-0.11474 -0.82907,-0.63061 -1.39182,-1.14638 -0.56276,-0.51575 -2.84369,-2.40109 -5.06872,-4.18964 -8.05513,-6.47494 -10.31228,-9.5963 -10.69334,-14.78768 -0.13998,-1.90691 -0.34023,-2.31263 -0.974,-1.97344 -0.47146,0.25232 -1.05584,2.80293 -1.96703,8.58537 -0.78311,4.96966 -0.89342,5.04113 -3.73633,2.42113 -5.551274,-5.11606 -8.893917,-10.92529 -10.513952,-18.27239 -0.881202,-3.99633 -0.768271,-4.6404 1.042294,-5.94407 5.939498,-4.27667 12.636508,-7.35005 19.379418,-8.89356 12.55001,-2.87279 26.24025,-1.46008 47.28487,4.87941 1.11511,0.33592 3.89369,1.16825 6.17461,1.84962 2.28093,0.68137 5.18392,1.55492 6.4511,1.94121 5.5743,1.6993 9.15797,2.33725 12.053,2.14559 1.66884,-0.11048 5.88456,-0.86817 6.82962,-1.22749 0.27207,-0.10343 0.77955,-0.18806 1.12777,-0.18806 1.01772,0 0.79836,0.52782 -0.89506,2.15358 -4.76651,4.57603 -10.56782,8.00246 -16.93302,10.00116 -5.92629,1.86088 -8.10361,2.87918 -14.83628,6.93869 -5.0314,3.0337 -9.74663,4.79475 -14.28352,5.33462 -1.25011,0.14875 -1.81716,-0.242 -1.81421,-1.25019 0.002,-0.67411 0.47387,-8.28367 0.65489,-10.5602 0.0993,-1.24898 0.0699,-1.52238 -0.18647,-1.73517 -0.48041,-0.3987 -0.67825,-0.043 -1.94355,3.49424 -1.49454,4.17804 -3.90652,10.28461 -4.66184,11.80262 -0.56246,1.13041 -0.66206,1.22566 -1.93623,1.85147 -1.06456,0.52286 -1.49767,0.86705 -2.08735,1.65885 -1.54504,2.07456 -3.97845,4.25171 -5.54875,4.96443 -0.91537,0.41547 -1.03091,0.42654 -1.5261,0.14628 z M 78.98024,136.60144 c -0.428924,-0.37071 -0.517728,-0.67871 -0.837001,-2.90299 -0.43038,-2.99828 -0.478137,-3.24219 -0.956587,-4.8844 -1.114546,-3.82551 -3.792801,-7.12992 -7.42379,-9.15943 -1.84304,-1.03015 -10.66893,-4.75651 -11.265785,-4.75651 -0.31297,0 -3.755053,-1.87684 -5.230584,-2.85205 -1.922481,-1.2706 -4.746402,-3.51087 -5.048294,-4.00491 -0.263832,-0.43174 -0.07752,-0.56046 1.042073,-0.71996 1.443404,-0.20563 9.911516,-0.19094 13.003212,0.0225 7.179994,0.49581 9.209121,1.64794 13.954988,7.92363 4.577604,6.05316 8.652355,9.92527 13.727098,13.04443 2.568034,1.57843 5.991131,3.38452 7.056649,3.72322 0.383749,0.12198 0.835749,0.43245 1.004454,0.68993 0.293507,0.44795 0.288696,0.48277 -0.111825,0.8071 -0.23023,0.18642 -0.723702,0.39125 -1.096631,0.45518 -0.37291,0.0639 -1.258627,0.23717 -1.968247,0.38496 -0.70962,0.1478 -2.368473,0.47354 -3.686339,0.72388 -1.317867,0.25033 -3.267018,0.62073 -4.331449,0.8231 -6.86402,1.30504 -7.088739,1.32462 -7.831942,0.68227 z m 88.28631,-2.34463 c -3.01967,-0.20381 -7.27159,-0.87948 -7.83347,-1.24481 -0.91234,-0.59317 -1.23429,-1.47075 -0.89579,-2.44176 0.24295,-0.69689 0.27895,-0.71614 3.41514,-1.82533 7.71241,-2.72768 11.61626,-5.25689 19.83469,-12.85042 3.54785,-3.27809 3.98282,-3.56907 4.66603,-3.12141 0.57516,0.37685 0.74364,1.14699 0.9891,4.52116 0.65036,8.93994 0.63444,8.92028 6.69463,8.26381 2.11111,-0.22868 2.65907,-0.1106 2.17778,0.46931 -0.63294,0.76267 -11.74151,5.93036 -15.04003,6.99662 -3.57604,1.15597 -8.59826,1.59797 -14.00808,1.23283 z m -63.71734,-4.51745 C 92.969401,128.009 82.371857,118.8509 76.030818,105.95874 69.719806,93.127655 69.257225,80.815788 74.787748,72.873846 c 1.276064,-1.832459 2.422497,-2.949071 3.027793,-2.949071 0.666454,0 0.911577,0.414398 1.516598,2.563845 1.56662,5.565773 3.681233,9.114693 8.032478,13.480705 2.682144,2.691257 5.44076,4.861685 9.362159,7.365945 7.614484,4.862725 9.908324,6.554805 13.095974,9.66037 2.85052,2.77714 5.47862,6.20098 6.39357,8.32945 2.40621,5.59766 2.33764,9.96933 -0.23327,14.87197 -0.36157,0.68951 -0.9467,1.49211 -1.30026,1.78355 -1.77785,1.46545 -7.44921,2.36134 -11.13358,1.75875 z m 33.39719,-0.59031 c -3.52918,-0.36542 -7.92563,-1.65433 -7.92563,-2.32356 0,-0.33394 0.52073,-0.78743 1.1059,-0.96307 0.25344,-0.0761 1.20291,-0.50965 2.10993,-0.9635 8.04392,-4.02497 13.87118,-10.59324 20.03021,-22.57737 1.57546,-3.065527 1.76417,-3.239385 5.11083,-4.708754 6.12349,-2.688567 12.1018,-4.251042 18.45964,-4.824566 6.49994,-0.586342 7.06721,0.197923 3.78228,5.229094 -1.4433,2.210546 -2.81363,3.765636 -4.99119,5.664166 -2.19581,1.91444 -2.23931,1.97966 -2.93302,4.3969 -1.09925,3.83045 -3.51946,7.87391 -6.29399,10.51542 -2.80045,2.66622 -3.64613,3.06191 -9.83895,4.60365 -2.90992,0.72445 -4.35325,1.33149 -6.55121,2.75534 -3.86622,2.50455 -8.04734,3.61223 -12.0648,3.19625 z m -15.09339,-2.80664 c -0.32655,-0.2068 -0.3281,-0.58905 -0.0168,-4.14285 0.22945,-2.61977 0.22416,-3.2118 -0.0503,-5.62167 -0.77821,-6.83409 -3.06278,-11.42208 -7.97707,-16.01994 -1.4236,-1.331929 -2.34424,-2.034224 -5.78632,-4.413991 -1.99942,-1.382338 -1.69734,-2.191799 1.39292,-3.732514 3.01517,-1.503274 4.55007,-1.889133 7.9012,-1.986303 4.45266,-0.12911 7.84837,0.690365 13.21406,3.188905 6.95229,3.237336 9.9878,4.194661 15.22961,4.803046 1.38688,0.160964 2.82761,0.370339 3.20164,0.465276 1.17224,0.29754 1.12004,0.601757 -0.73824,4.303051 -6.84626,13.63617 -13.48625,19.96905 -23.99518,22.88532 -1.7262,0.47903 -1.99884,0.51021 -2.37551,0.27167 z M 62.079407,104.75793 c -4.767599,-0.75224 -8.538669,-3.2157 -11.117835,-7.262752 -3.158271,-4.955725 -3.183025,-11.125815 -0.09031,-22.501686 0.22048,-0.810995 0.760326,-2.815971 1.199664,-4.455504 0.900462,-3.360417 1.06174,-3.746602 1.564722,-3.746602 0.825501,0 3.150419,3.94604 5.158277,8.755056 2.858737,6.846898 3.873642,8.869327 5.584196,11.12763 1.212971,1.6014 1.286495,1.802766 1.96021,5.368739 0.646197,3.420241 1.303048,6.906086 1.837124,9.749449 0.37892,2.01722 0.31826,2.62272 -0.287718,2.87272 -0.516714,0.21317 -4.62925,0.27898 -5.808325,0.093 z m 92.222743,-8.084782 c -0.13559,-0.08594 -0.21853,-0.354237 -0.18433,-0.596208 0.0674,-0.47666 0.33008,-0.635608 2.91913,-1.766306 6.77684,-2.95962 12.30065,-7.41979 14.13621,-11.414204 0.66384,-1.44461 0.71523,-3.755851 0.11289,-5.078405 -1.35839,-2.982718 -4.4065,-4.279823 -9.82715,-4.181888 -2.86501,0.05177 -3.31605,-0.01397 -3.31605,-0.483316 0,-1.525776 8.18913,-2.475748 12.16135,-1.410762 4.12573,1.106145 6.50761,3.476033 7.05628,7.020773 0.43657,2.82049 -0.59166,5.556053 -2.98247,7.934822 -2.59907,2.585949 -5.36938,4.125064 -13.83903,7.688637 -0.86169,0.36255 -2.44086,1.061835 -3.50927,1.553971 -1.99607,0.919426 -2.30312,1.001928 -2.72756,0.732886 z m -6.7268,-0.698242 c -0.29209,-0.292076 0.009,-1.005626 2.34012,-5.548509 4.52438,-8.816526 6.5183,-11.51551 9.70192,-13.13252 3.04148,-1.54483 7.64001,-1.079271 8.97999,0.909146 1.85248,2.748883 -1.96441,6.937593 -11.46827,12.585485 -1.11512,0.662684 -3.18869,1.893618 -4.60793,2.735408 -1.41924,0.84179 -2.92715,1.765279 -3.35092,2.052198 -0.74514,0.504518 -1.34037,0.653346 -1.59491,0.398792 z M 139.619,93.42362 c -1.82475,-0.852614 -4.20671,-1.964073 -5.29326,-2.469912 -1.63069,-0.759154 -1.99684,-1.004502 -2.09747,-1.405437 -0.14764,-0.588272 0.0511,-0.809519 1.352,-1.505087 7.97046,-4.261651 14.43314,-14.038091 12.83835,-19.421254 -0.80849,-2.728999 -3.39625,-4.993897 -6.73202,-5.892129 -3.20898,-0.864083 -2.73829,-1.661122 0.76182,-1.290036 4.859,0.515155 7.60604,2.754448 9.06028,7.385603 0.39579,1.260413 0.43204,1.700722 0.43204,5.246538 0,3.553956 -0.043,4.074249 -0.52651,6.358936 -0.96631,4.566639 -2.83581,10.038645 -4.50248,13.178663 -0.9529,1.795269 -1.06086,1.791478 -5.29275,-0.185885 z M 99.349367,90.344682 c -0.984824,-0.526628 -1.241228,-2.199546 -0.505379,-3.297252 1.054275,-1.572708 12.990682,-6.699037 19.209922,-8.250081 1.86586,-0.465334 5.7888,-1.137071 6.92652,-1.18605 1.97059,-0.08483 2.18408,1.54199 0.32674,2.489695 -0.33981,0.173394 -2.8573,1.500764 -5.59441,2.949709 -10.07134,5.331475 -14.6736,7.184117 -18.48813,7.442417 -0.98794,0.0669 -1.556782,0.02187 -1.875263,-0.148438 z m 18.151593,-2.87509 c -0.6044,-0.141255 -0.84128,-0.751342 -0.42362,-1.09097 0.13163,-0.10702 1.15167,-0.501774 2.26679,-0.877231 2.25748,-0.760087 5.02582,-2.01821 7.07779,-3.21663 3.56876,-2.084264 8.19313,-6.23036 10.77436,-9.66001 1.66161,-2.207763 2.09535,-1.905974 1.91321,1.331202 -0.31223,5.549509 -2.89396,9.698167 -7.39908,11.889777 -3.04338,1.48052 -3.77868,1.617851 -9.04858,1.690006 -2.53436,0.0347 -4.85675,0.0049 -5.16087,-0.06614 z M 92.046784,85.333673 c -0.975258,-0.975247 -0.843343,-1.940102 0.387065,-2.831132 l 0.737269,-0.533915 v -2.473825 c 0,-2.232619 0.04196,-2.554694 0.430454,-3.30325 0.860004,-1.657063 2.354815,-2.83435 4.326619,-3.407573 0.981377,-0.285292 1.101995,-0.286374 1.518292,-0.01362 0.427045,0.279812 0.452204,0.392818 0.452204,2.031061 0,2.123809 0.176283,2.680347 0.849003,2.680347 0.43185,0 4.44983,-1.977483 8.84633,-4.353785 2.57511,-1.391838 3.20685,-1.07562 3.20685,1.60519 0,2.438219 0.90133,1.807906 -10.32175,7.218185 -9.50312,4.581142 -9.299524,4.515134 -10.432336,3.382316 z M 65.396301,83.057359 c -0.311717,-0.75128 -0.407359,-5.699693 -0.155509,-8.045915 0.779975,-7.266106 3.422233,-13.229384 7.022551,-15.849152 1.438354,-1.046601 2.466843,-1.346022 3.56622,-1.038216 1.560833,0.43701 2.142519,1.49883 2.532387,4.622793 0.289432,2.319272 0.172981,2.587318 -1.516966,3.491566 -6.257064,3.347994 -9.547417,8.273978 -10.033958,15.021833 -0.0731,1.013744 -0.216204,1.946848 -0.318039,2.073566 -0.321615,0.400261 -0.873644,0.261096 -1.096686,-0.276475 z m 20.415593,-4.8844 c -1.179389,-1.801347 -2.59216,-5.983218 -3.151581,-9.328792 -0.435651,-2.605332 -0.298003,-7.21824 0.278485,-9.333301 1.303582,-4.782735 4.658629,-8.615403 6.86765,-7.845338 1.28985,0.449645 1.711365,0.296632 3.431484,-1.245647 4.525111,-4.057252 8.743278,-5.631844 14.217748,-5.307335 1.71983,0.101945 4.99785,0.737085 6.26678,1.214235 5.09721,1.916689 7.08665,2.946134 11.88844,6.151751 3.41564,2.280231 5.05801,4.024902 6.18629,6.571541 0.41341,0.933138 0.44896,1.240907 0.44714,3.870656 -0.002,2.285928 -0.0644,2.995573 -0.31423,3.550694 -0.61188,1.35949 -1.43531,1.17216 -2.43054,-0.552935 -3.91444,-6.785278 -9.52833,-11.032675 -16.79085,-12.70375 -2.1015,-0.483547 -9.40427,-0.485933 -11.70412,-0.0038 -2.3616,0.495054 -5.274287,1.338463 -7.468119,2.162507 -4.443237,1.668957 -4.413802,1.626647 -4.279804,6.148032 0.115438,3.894641 0.675817,6.718872 2.051393,10.338651 0.642916,1.691775 0.540251,1.924295 -1.964247,4.448853 -2.433906,2.453392 -2.963154,2.732713 -3.531919,1.864003 z m 33.242926,-2.826283 c -0.41941,-0.505372 0.34965,-1.210815 1.7735,-1.626774 0.55448,-0.161985 1.07951,0.284799 0.92111,0.783854 -0.26452,0.833446 -2.19999,1.438894 -2.69461,0.84292 z m 6.97283,-0.0269 c -0.27766,-0.179456 -1.13951,-1.015408 -1.91522,-1.857672 -1.51082,-1.640426 -2.96828,-2.734733 -4.64511,-3.48769 -2.04452,-0.918059 -2.25456,-1.425094 -1.22419,-2.955091 0.8448,-1.254462 1.28242,-1.276965 2.50964,-0.129046 0.57354,0.53648 1.66243,1.205645 3.03819,1.867105 2.40818,1.157824 3.35932,1.966811 4.04574,3.441076 0.56766,1.219193 0.57861,2.166175 0.0321,2.777818 -0.55881,0.625406 -1.21542,0.747908 -1.84114,0.3435 z m 28.40555,-0.626069 c -0.35463,-0.35463 -0.38031,-0.520311 -0.26977,-1.740218 0.53555,-5.909995 -3.42142,-12.268392 -11.13457,-17.892012 -6.41412,-4.676494 -15.94172,-8.586758 -22.39452,-9.191035 -1.61686,-0.151412 -1.87599,-0.223673 -2.00467,-0.558999 -0.18916,-0.492908 0.10562,-0.835413 1.19011,-1.382864 7.22319,-3.646255 16.01569,-3.610764 21.73454,0.08774 3.51356,2.2723 5.74429,5.477569 7.127,10.240559 0.54875,1.89029 0.62333,1.978463 2.61027,3.086321 4.87379,2.717472 6.22615,5.760434 5.76051,12.961859 -0.22061,3.411875 -0.34946,3.87813 -1.22055,4.416487 -0.74333,0.459412 -0.91451,0.456004 -1.39835,-0.02784 z M 114.58046,73.45836 c -0.94498,-1.044176 0.74637,-3.009685 2.05344,-2.386304 0.3901,0.186046 0.51088,0.388279 0.5558,0.930471 0.11257,1.359191 -1.75414,2.400723 -2.60924,1.455833 z M 103.2967,72.062801 c -0.0611,-0.243324 0.0224,-0.969073 0.18551,-1.612774 1.10395,-4.356684 4.00927,-6.491437 8.42285,-6.188923 1.19955,0.08222 1.56725,0.181211 1.92644,0.518649 0.93648,0.87979 0.41365,1.650846 -1.67574,2.471285 -2.71939,1.067821 -4.81832,2.348031 -6.81226,4.155023 -1.31298,1.189867 -1.86829,1.368043 -2.0468,0.65674 z M 95.138259,70.655386 C 94.3943,70.201807 93.547105,68.45543 93.136042,66.527992 c -0.549891,-2.57822 0.12246,-6.892498 1.28233,-8.228497 1.429046,-1.646062 7.292848,-3.488715 11.101978,-3.488715 4.31328,0 7.95142,1.454739 13.67225,5.466946 6.0183,4.220833 6.10218,4.292949 5.86445,5.041973 -0.232,0.730942 -2.47847,0.901312 -3.14153,0.23825 -0.14709,-0.147089 -0.26743,-0.499967 -0.26743,-0.784179 0,-1.827506 -0.64846,-2.404503 -1.80307,-1.604361 -0.9425,0.653148 -1.36803,0.61975 -3.23179,-0.253638 -2.51839,-1.180162 -4.16274,-1.645166 -6.26818,-1.77258 -5.09524,-0.308348 -8.6696,2.090571 -11.640627,7.812551 -1.030092,1.983886 -2.191805,2.53756 -3.566164,1.699644 z"
       id="path1" />
  </g>
</svg>
